<svg>
  <symbol fill="none" xmlns="http://www.w3.org/2000/svg" viewBox="0 0 6 9" id="arrow">
    <path d="M5.05145 4.0749L1.25145 0.674902C1.05145 0.474902 0.651448 0.474902 0.351448 0.674902C0.0514485 0.874902 0.151448 1.2749 0.351448 1.4749L3.65145 4.4749L0.451448 7.4749C0.251448 7.6749 0.251448 8.0749 0.451448 8.2749C0.451448 8.3749 0.751448 8.4749 0.851448 8.4749C0.951449 8.4749 1.15145 8.3749 1.25145 8.2749L5.05145 4.8749C5.35145 4.6749 5.35145 4.2749 5.05145 4.0749Z" fill="currentColor"></path>
  </symbol>
  <symbol fill="none" xmlns="http://www.w3.org/2000/svg" viewBox="0 0 11 10" id="checkmark">
    <ellipse cx="5.45706" cy="5" rx="5.01419" ry="5" fill="currentColor"></ellipse>
  </symbol>
  <symbol fill="none" xmlns="http://www.w3.org/2000/svg" viewBox="0 0 12 8" id="dropdown-arrow">
    <path d="M6.67495 7.2123L11.775 1.9123C12.075 1.6123 12.075 1.0123 11.775 0.712305C11.475 0.412305 10.875 0.412305 10.575 0.712305L6.07495 5.4123L1.57495 0.712305C1.27495 0.412305 0.674951 0.412305 0.374951 0.712305C0.174951 0.812305 0.0749512 1.1123 0.0749512 1.3123C0.0749512 1.5123 0.174951 1.7123 0.374951 1.9123L5.47495 7.2123C5.77495 7.6123 6.37495 7.6123 6.67495 7.2123Z" fill="currentColor"></path>
  </symbol>
  <symbol fill="none" xmlns="http://www.w3.org/2000/svg" viewBox="0 0 115 33" id="html-academy-logo">
    <path d="M0 12.9V15.5H2.5V12.9H0Z" fill="currentColor"></path>
    <path d="M11.6 4.5C10 4.5 8.8 5.2 8 6.2H7.9V0H5.9V15.5H7.9V10.2C7.9 8.1 9.2 6.6 11.2 6.6C13 6.6 14.1 8 14.1 9.8V15.5H16.1V9.4C16.2 6.4 14.3 4.5 11.6 4.5Z" fill="currentColor"></path>
    <path d="M26.6 4.8H21.8V1.1H19.8V4.9H17.9V6.9H19.8V12.9C19.8 14.6 20.8 15.6 22.5 15.6H26.6V13.6H22.9C22.2 13.6 21.8 13.2 21.8 12.5V6.8H26.6V4.8Z" fill="currentColor"></path>
    <path d="M41.1 4.6C39.5 4.6 38.2 5.4 37.6 6.7H37.5C36.9 5.5 35.7 4.6 34.1 4.6C32.7 4.6 31.6 5.4 31 6.4H30.9V4.8H29V15.4H31V10C31 8 32 6.5 33.6 6.5C35.1 6.5 36 7.5 36 9.1V15.4H38V9.8C38 7.4 39.4 6.5 40.6 6.5C42.1 6.5 43 7.5 43 9.1V15.4H45V8.9C45.1 6.4 43.6 4.6 41.1 4.6Z" fill="currentColor"></path>
    <path d="M47.8 12.7C47.8 14.4 48.8 15.4 50.6 15.4H52.6V13.4H50.9C50.2 13.4 49.8 13 49.8 12.3V0H47.8V12.7Z" fill="currentColor"></path>
    <path d="M28.9 19.7C28 18.6 26.7 17.9 25 17.9C21.9 17.9 19.6 20.2 19.6 23.5C19.6 26.8 21.9 29.1 25 29.1C26.8 29.1 28 28.3 28.8 27.2H28.9V28.8H30.9V18.2H28.9V19.7ZM25.3 27.1C23.1 27.1 21.7 25.5 21.7 23.5C21.7 21.5 23.1 19.9 25.3 19.9C27.5 19.9 28.9 21.5 28.9 23.5C28.9 25.4 27.5 27.1 25.3 27.1Z" fill="currentColor"></path>
    <path d="M44.2 22C43.7 19.6 41.6 17.9 38.8 17.9C35.4 17.9 33.2 20.4 33.2 23.5C33.2 26.6 35.4 29.1 38.8 29.1C41.6 29.1 43.7 27.3 44.2 24.9H42.1C41.7 26.2 40.4 27.2 38.8 27.2C36.6 27.2 35.2 25.6 35.2 23.6C35.2 21.6 36.6 20 38.8 20C40.4 20 41.6 21 42.1 22.2H44.2V22Z" fill="currentColor"></path>
    <path d="M55.1 19.7C54.2 18.6 52.9 17.9 51.2 17.9C48.1 17.9 45.8 20.2 45.8 23.5C45.8 26.8 48.1 29.1 51.2 29.1C53 29.1 54.2 28.3 55 27.2H55.1V28.8H57.1V18.2H55.1V19.7ZM51.5 27.1C49.3 27.1 47.9 25.5 47.9 23.5C47.9 21.5 49.3 19.9 51.5 19.9C53.7 19.9 55.1 21.5 55.1 23.5C55.1 25.4 53.6 27.1 51.5 27.1Z" fill="currentColor"></path>
    <path d="M68.7 19.8C67.8 18.7 66.5 17.9 64.8 17.9C61.7 17.9 59.4 20.2 59.4 23.5C59.4 26.8 61.6 29.1 64.8 29.1C66.5 29.1 67.8 28.3 68.6 27.3H68.7V28.8H70.7V13.4H68.7V19.8ZM65.1 27.1C62.9 27.1 61.5 25.5 61.5 23.5C61.5 21.5 62.9 19.9 65.1 19.9C67.3 19.9 68.7 21.5 68.7 23.5C68.6 25.5 67.2 27.1 65.1 27.1Z" fill="currentColor"></path>
    <path d="M78.3 17.9C75 17.9 72.8 20.4 72.8 23.5C72.8 26.5 74.9 29.1 78.3 29.1C80.8 29.1 82.8 27.8 83.5 25.5H81.4C80.9 26.5 79.8 27.1 78.4 27.1C76.5 27.1 75.1 25.8 75 24.2H83.8C84 20.6 81.8 17.9 78.3 17.9ZM78.3 19.8C80 19.8 81.3 20.8 81.6 22.4H75.1C75.4 20.9 76.6 19.8 78.3 19.8Z" fill="currentColor"></path>
    <path d="M98.2 17.9C96.6 17.9 95.3 18.7 94.6 19.9H94.5C93.9 18.7 92.7 17.9 91.1 17.9C89.7 17.9 88.6 18.6 88 19.7V18.2H86.1V28.8H88.1V23.4C88.1 21.4 89.1 20 90.7 19.9C92.2 19.9 93.1 20.9 93.1 22.5V28.8H95.1V23.2C95.1 20.8 96.5 19.9 97.7 19.9C99.2 19.9 100.1 20.9 100.1 22.5V28.8H102.1V22.3C102.2 19.7 100.7 17.9 98.2 17.9Z" fill="currentColor"></path>
    <path d="M109.4 27L105.8 18.1H103.6L108.4 29.7C108.1 30.6 107.7 30.9 106.7 30.9H104.2V32.9H106.7C108.5 32.9 109.5 32.1 110.2 30.3L114.9 18.1H112.8L109.4 27Z" fill="currentColor"></path>
  </symbol>
  <symbol fill="none" xmlns="http://www.w3.org/2000/svg" viewBox="0 0 12 12" id="icon-go-home">
    <path d="M6 0L0 5.80006V12.0001H12V5.80006L6 0ZM11 11.0001H1V6.20005L6 1.4L11 6.20005V11.0001Z" fill="currentColor"></path>
    <path d="M4 10.0001H5V7.50005H7V10.0001H8V6.50005H4V10.0001Z" fill="currentColor"></path>
  </symbol>
  <symbol fill="none" xmlns="http://www.w3.org/2000/svg" viewBox="0 0 16 14" id="icon-list">
    <path d="M2 0H0V2H2V0Z" fill="currentColor"></path>
    <path d="M16 0H4V2H16V0Z" fill="currentColor"></path>
    <path d="M2 4H0V6H2V4Z" fill="currentColor"></path>
    <path d="M16 4H4V6H16V4Z" fill="currentColor"></path>
    <path d="M2 8H0V10H2V8Z" fill="currentColor"></path>
    <path d="M16 8H4V10H16V8Z" fill="currentColor"></path>
    <path d="M2 12H0V14H2V12Z" fill="currentColor"></path>
    <path d="M16 12H4V14H16V12Z" fill="currentColor"></path>
  </symbol>
  <symbol fill="none" xmlns="http://www.w3.org/2000/svg" viewBox="0 0 16 14" id="icon-slideshow">
    <path d="M16 12H0V14H16V12Z" fill="currentColor"></path>
    <path d="M14 2V8H2V2H14ZM16 0H0V10H16V0Z" fill="currentColor"></path>
  </symbol>
  <symbol fill="none" xmlns="http://www.w3.org/2000/svg" viewBox="0 0 16 14" id="icon-table">
    <path d="M4 0H0V6H4V0Z" fill="currentColor"></path>
    <path d="M16 0H12V6H16V0Z" fill="currentColor"></path>
    <path d="M10 0H6V6H10V0Z" fill="currentColor"></path>
    <path d="M4 8H0V14H4V8Z" fill="currentColor"></path>
    <path d="M16 8H12V14H16V8Z" fill="currentColor"></path>
    <path d="M10 8H6V14H10V8Z" fill="currentColor"></path>
  </symbol>
  <symbol fill="none" xmlns="http://www.w3.org/2000/svg" viewBox="0 0 13 10" id="tick">
    <path d="M11.0454 0L4.52693 7.4L1.11728 3.5L0.0141602 4.7L4.52693 9.9L12.2488 1.3L11.0454 0Z" fill="currentColor"></path>
  </symbol>
  <symbol fill="none" xmlns="http://www.w3.org/2000/svg" viewBox="0 0 18 16" id="telegram-social-media">
    <path d="M16.785 0.0992597L0.840489 6.24776C-0.247661 6.68481 -0.241365 7.29184 0.640845 7.56253L4.73445 8.83953L14.2058 2.8637C14.6537 2.59121 15.0629 2.7378 14.7265 3.03636L7.05283 9.96185H7.05103L7.05283 9.96275L6.77045 14.1823C7.18413 14.1823 7.36669 13.9925 7.59871 13.7686L9.58705 11.8351L13.7229 14.89C14.4855 15.31 15.0332 15.0941 15.2229 14.1841L17.9379 1.38885C18.2158 0.274623 17.5126 -0.229883 16.785 0.0992597Z" fill="currentColor"></path>
  </symbol>
  <symbol fill="none" xmlns="http://www.w3.org/2000/svg" viewBox="0 0 24 14" id="Vkontakte-social-media">
    <path fill-rule="evenodd" clip-rule="evenodd" d="M23.45 0.948C23.616 0.402 23.45 0 22.655 0H20.03C19.362 0 19.054 0.347 18.887 0.73C18.887 0.73 17.552 3.926 15.661 6.002C15.049 6.604 14.771 6.795 14.437 6.795C14.27 6.795 14.019 6.604 14.019 6.057V0.948C14.019 0.292 13.835 0 13.279 0H9.151C8.734 0 8.483 0.304 8.483 0.593C8.483 1.214 9.429 1.358 9.526 3.106V6.904C9.526 7.737 9.373 7.888 9.039 7.888C8.149 7.888 5.984 4.677 4.699 1.003C4.45 0.288 4.198 0 3.527 0H0.9C0.15 0 0 0.347 0 0.73C0 1.412 0.89 4.8 4.145 9.281C6.315 12.341 9.37 14 12.153 14C13.822 14 14.028 13.632 14.028 12.997V10.684C14.028 9.947 14.186 9.8 14.715 9.8C15.105 9.8 15.772 9.992 17.33 11.467C19.11 13.216 19.403 14 20.405 14H23.03C23.78 14 24.156 13.632 23.94 12.904C23.702 12.18 22.852 11.129 21.725 9.882C21.113 9.172 20.195 8.407 19.916 8.024C19.527 7.533 19.638 7.314 19.916 6.877C19.916 6.877 23.116 2.451 23.449 0.948H23.45Z" fill="currentColor"></path>
  </symbol>
  <symbol fill="none" xmlns="http://www.w3.org/2000/svg" viewBox="0 0 22 17" id="Youtube-social-media">
    <path d="M18.607 0H3.17413C1.31343 0 0 1.59375 0 3.4V13.4937C0 15.4062 1.31343 17 3.17413 17H18.8259C20.4677 17 22 15.4062 22 13.6V3.4C21.7811 1.59375 20.4677 0 18.607 0ZM7.66169 12.5375V4.4625L14.995 8.5L7.66169 12.5375Z" fill="currentColor"></path>
  </symbol>
</svg>