<svg>
  <symbol fill="none" xmlns="http://www.w3.org/2000/svg" viewBox="0 0 6 9" id="arrow">
    <path d="M5.05145 4.0749L1.25145 0.674902C1.05145 0.474902 0.651448 0.474902 0.351448 0.674902C0.0514485 0.874902 0.151448 1.2749 0.351448 1.4749L3.65145 4.4749L0.451448 7.4749C0.251448 7.6749 0.251448 8.0749 0.451448 8.2749C0.451448 8.3749 0.751448 8.4749 0.851448 8.4749C0.951449 8.4749 1.15145 8.3749 1.25145 8.2749L5.05145 4.8749C5.35145 4.6749 5.35145 4.2749 5.05145 4.0749Z" fill="currentColor"></path>
  </symbol>
  <symbol fill="none" xmlns="http://www.w3.org/2000/svg" viewBox="0 0 11 10" id="checkmark">
    <ellipse cx="5.45706" cy="5" rx="5.01419" ry="5" fill="currentColor"></ellipse>
  </symbol>
  <symbol fill="none" xmlns="http://www.w3.org/2000/svg" viewBox="0 0 12 8" id="dropdown-arrow">
    <path d="M6.67495 7.2123L11.775 1.9123C12.075 1.6123 12.075 1.0123 11.775 0.712305C11.475 0.412305 10.875 0.412305 10.575 0.712305L6.07495 5.4123L1.57495 0.712305C1.27495 0.412305 0.674951 0.412305 0.374951 0.712305C0.174951 0.812305 0.0749512 1.1123 0.0749512 1.3123C0.0749512 1.5123 0.174951 1.7123 0.374951 1.9123L5.47495 7.2123C5.77495 7.6123 6.37495 7.6123 6.67495 7.2123Z" fill="currentColor"></path>
  </symbol>
  <symbol fill="none" xmlns="http://www.w3.org/2000/svg" viewBox="0 0 115 33" id="html-academy-logo">
    <path d="M0 12.9V15.5H2.5V12.9H0Z" fill="currentColor"></path>
    <path d="M11.6 4.5C10 4.5 8.8 5.2 8 6.2H7.9V0H5.9V15.5H7.9V10.2C7.9 8.1 9.2 6.6 11.2 6.6C13 6.6 14.1 8 14.1 9.8V15.5H16.1V9.4C16.2 6.4 14.3 4.5 11.6 4.5Z" fill="currentColor"></path>
    <path d="M26.6 4.8H21.8V1.1H19.8V4.9H17.9V6.9H19.8V12.9C19.8 14.6 20.8 15.6 22.5 15.6H26.6V13.6H22.9C22.2 13.6 21.8 13.2 21.8 12.5V6.8H26.6V4.8Z" fill="currentColor"></path>
    <path d="M41.1 4.6C39.5 4.6 38.2 5.4 37.6 6.7H37.5C36.9 5.5 35.7 4.6 34.1 4.6C32.7 4.6 31.6 5.4 31 6.4H30.9V4.8H29V15.4H31V10C31 8 32 6.5 33.6 6.5C35.1 6.5 36 7.5 36 9.1V15.4H38V9.8C38 7.4 39.4 6.5 40.6 6.5C42.1 6.5 43 7.5 43 9.1V15.4H45V8.9C45.1 6.4 43.6 4.6 41.1 4.6Z" fill="currentColor"></path>
    <path d="M47.8 12.7C47.8 14.4 48.8 15.4 50.6 15.4H52.6V13.4H50.9C50.2 13.4 49.8 13 49.8 12.3V0H47.8V12.7Z" fill="currentColor"></path>
    <path d="M28.9 19.7C28 18.6 26.7 17.9 25 17.9C21.9 17.9 19.6 20.2 19.6 23.5C19.6 26.8 21.9 29.1 25 29.1C26.8 29.1 28 28.3 28.8 27.2H28.9V28.8H30.9V18.2H28.9V19.7ZM25.3 27.1C23.1 27.1 21.7 25.5 21.7 23.5C21.7 21.5 23.1 19.9 25.3 19.9C27.5 19.9 28.9 21.5 28.9 23.5C28.9 25.4 27.5 27.1 25.3 27.1Z" fill="currentColor"></path>
    <path d="M44.2 22C43.7 19.6 41.6 17.9 38.8 17.9C35.4 17.9 33.2 20.4 33.2 23.5C33.2 26.6 35.4 29.1 38.8 29.1C41.6 29.1 43.7 27.3 44.2 24.9H42.1C41.7 26.2 40.4 27.2 38.8 27.2C36.6 27.2 35.2 25.6 35.2 23.6C35.2 21.6 36.6 20 38.8 20C40.4 20 41.6 21 42.1 22.2H44.2V22Z" fill="currentColor"></path>
    <path d="M55.1 19.7C54.2 18.6 52.9 17.9 51.2 17.9C48.1 17.9 45.8 20.2 45.8 23.5C45.8 26.8 48.1 29.1 51.2 29.1C53 29.1 54.2 28.3 55 27.2H55.1V28.8H57.1V18.2H55.1V19.7ZM51.5 27.1C49.3 27.1 47.9 25.5 47.9 23.5C47.9 21.5 49.3 19.9 51.5 19.9C53.7 19.9 55.1 21.5 55.1 23.5C55.1 25.4 53.6 27.1 51.5 27.1Z" fill="currentColor"></path>
    <path d="M68.7 19.8C67.8 18.7 66.5 17.9 64.8 17.9C61.7 17.9 59.4 20.2 59.4 23.5C59.4 26.8 61.6 29.1 64.8 29.1C66.5 29.1 67.8 28.3 68.6 27.3H68.7V28.8H70.7V13.4H68.7V19.8ZM65.1 27.1C62.9 27.1 61.5 25.5 61.5 23.5C61.5 21.5 62.9 19.9 65.1 19.9C67.3 19.9 68.7 21.5 68.7 23.5C68.6 25.5 67.2 27.1 65.1 27.1Z" fill="currentColor"></path>
    <path d="M78.3 17.9C75 17.9 72.8 20.4 72.8 23.5C72.8 26.5 74.9 29.1 78.3 29.1C80.8 29.1 82.8 27.8 83.5 25.5H81.4C80.9 26.5 79.8 27.1 78.4 27.1C76.5 27.1 75.1 25.8 75 24.2H83.8C84 20.6 81.8 17.9 78.3 17.9ZM78.3 19.8C80 19.8 81.3 20.8 81.6 22.4H75.1C75.4 20.9 76.6 19.8 78.3 19.8Z" fill="currentColor"></path>
    <path d="M98.2 17.9C96.6 17.9 95.3 18.7 94.6 19.9H94.5C93.9 18.7 92.7 17.9 91.1 17.9C89.7 17.9 88.6 18.6 88 19.7V18.2H86.1V28.8H88.1V23.4C88.1 21.4 89.1 20 90.7 19.9C92.2 19.9 93.1 20.9 93.1 22.5V28.8H95.1V23.2C95.1 20.8 96.5 19.9 97.7 19.9C99.2 19.9 100.1 20.9 100.1 22.5V28.8H102.1V22.3C102.2 19.7 100.7 17.9 98.2 17.9Z" fill="currentColor"></path>
    <path d="M109.4 27L105.8 18.1H103.6L108.4 29.7C108.1 30.6 107.7 30.9 106.7 30.9H104.2V32.9H106.7C108.5 32.9 109.5 32.1 110.2 30.3L114.9 18.1H112.8L109.4 27Z" fill="currentColor"></path>
  </symbol>
  <symbol fill="none" xmlns="http://www.w3.org/2000/svg" viewBox="0 0 12 12" id="icon-go-home">
    <path d="M6 0L0 5.80006V12.0001H12V5.80006L6 0ZM11 11.0001H1V6.20005L6 1.4L11 6.20005V11.0001Z" fill="currentColor"></path>
    <path d="M4 10.0001H5V7.50005H7V10.0001H8V6.50005H4V10.0001Z" fill="currentColor"></path>
  </symbol>
  <symbol fill="none" xmlns="http://www.w3.org/2000/svg" viewBox="0 0 16 14" id="icon-list">
    <path d="M2 0H0V2H2V0Z" fill="currentColor"></path>
    <path d="M16 0H4V2H16V0Z" fill="currentColor"></path>
    <path d="M2 4H0V6H2V4Z" fill="currentColor"></path>
    <path d="M16 4H4V6H16V4Z" fill="currentColor"></path>
    <path d="M2 8H0V10H2V8Z" fill="currentColor"></path>
    <path d="M16 8H4V10H16V8Z" fill="currentColor"></path>
    <path d="M2 12H0V14H2V12Z" fill="currentColor"></path>
    <path d="M16 12H4V14H16V12Z" fill="currentColor"></path>
  </symbol>
  <symbol fill="none" xmlns="http://www.w3.org/2000/svg" viewBox="0 0 16 14" id="icon-slideshow">
    <path d="M16 12H0V14H16V12Z" fill="currentColor"></path>
    <path d="M14 2V8H2V2H14ZM16 0H0V10H16V0Z" fill="currentColor"></path>
  </symbol>
  <symbol fill="none" xmlns="http://www.w3.org/2000/svg" viewBox="0 0 16 14" id="icon-table">
    <path d="M4 0H0V6H4V0Z" fill="currentColor"></path>
    <path d="M16 0H12V6H16V0Z" fill="currentColor"></path>
    <path d="M10 0H6V6H10V0Z" fill="currentColor"></path>
    <path d="M4 8H0V14H4V8Z" fill="currentColor"></path>
    <path d="M16 8H12V14H16V8Z" fill="currentColor"></path>
    <path d="M10 8H6V14H10V8Z" fill="currentColor"></path>
  </symbol>
  <symbol fill="none" xmlns="http://www.w3.org/2000/svg" viewBox="0 0 13 10" id="tick">
    <path d="M11.0454 0L4.52693 7.4L1.11728 3.5L0.0141602 4.7L4.52693 9.9L12.2488 1.3L11.0454 0Z" fill="currentColor"></path>
  </symbol>
  <symbol fill="none" xmlns="http://www.w3.org/2000/svg" viewBox="0 0 18 16" id="telegram-social-media">
    <path d="M16.785 0.0992597L0.840489 6.24776C-0.247661 6.68481 -0.241365 7.29184 0.640845 7.56253L4.73445 8.83953L14.2058 2.8637C14.6537 2.59121 15.0629 2.7378 14.7265 3.03636L7.05283 9.96185H7.05103L7.05283 9.96275L6.77045 14.1823C7.18413 14.1823 7.36669 13.9925 7.59871 13.7686L9.58705 11.8351L13.7229 14.89C14.4855 15.31 15.0332 15.0941 15.2229 14.1841L17.9379 1.38885C18.2158 0.274623 17.5126 -0.229883 16.785 0.0992597Z" fill="currentColor"></path>
  </symbol>
  <symbol fill="none" xmlns="http://www.w3.org/2000/svg" viewBox="0 0 24 14" id="Vkontakte-social-media">
    <path fill-rule="evenodd" clip-rule="evenodd" d="M23.45 0.948C23.616 0.402 23.45 0 22.655 0H20.03C19.362 0 19.054 0.347 18.887 0.73C18.887 0.73 17.552 3.926 15.661 6.002C15.049 6.604 14.771 6.795 14.437 6.795C14.27 6.795 14.019 6.604 14.019 6.057V0.948C14.019 0.292 13.835 0 13.279 0H9.151C8.734 0 8.483 0.304 8.483 0.593C8.483 1.214 9.429 1.358 9.526 3.106V6.904C9.526 7.737 9.373 7.888 9.039 7.888C8.149 7.888 5.984 4.677 4.699 1.003C4.45 0.288 4.198 0 3.527 0H0.9C0.15 0 0 0.347 0 0.73C0 1.412 0.89 4.8 4.145 9.281C6.315 12.341 9.37 14 12.153 14C13.822 14 14.028 13.632 14.028 12.997V10.684C14.028 9.947 14.186 9.8 14.715 9.8C15.105 9.8 15.772 9.992 17.33 11.467C19.11 13.216 19.403 14 20.405 14H23.03C23.78 14 24.156 13.632 23.94 12.904C23.702 12.18 22.852 11.129 21.725 9.882C21.113 9.172 20.195 8.407 19.916 8.024C19.527 7.533 19.638 7.314 19.916 6.877C19.916 6.877 23.116 2.451 23.449 0.948H23.45Z" fill="currentColor"></path>
  </symbol>
  <symbol fill="none" xmlns="http://www.w3.org/2000/svg" viewBox="0 0 22 17" id="Youtube-social-media">
    <path d="M18.607 0H3.17413C1.31343 0 0 1.59375 0 3.4V13.4937C0 15.4062 1.31343 17 3.17413 17H18.8259C20.4677 17 22 15.4062 22 13.6V3.4C21.7811 1.59375 20.4677 0 18.607 0ZM7.66169 12.5375V4.4625L14.995 8.5L7.66169 12.5375Z" fill="currentColor"></path>
  </symbol>
  <symbol fill="none" xmlns="http://www.w3.org/2000/svg" viewBox="0 0 25 25" id="modal-tooltip-icon">
    <rect width="25" height="25" fill="#E5E5E5"></rect>
    <g clip-path="url(#clip0_0_1)">
      <rect width="1280" height="3315" transform="translate(-750 -751)" fill="#F2F2F2"></rect>
      <g filter="url(#filter0_d_0_1)">
        <rect x="-710" y="-751" width="1200" height="3315" fill="white"></rect>
      </g>
      <rect x="-710" y="-201" width="1200" height="282" fill="white"></rect>
      <rect x="-750" y="-751" width="1280" height="3315" fill="#F2F2F2" fill-opacity="0.8"></rect>
      <g filter="url(#filter1_d_0_1)">
        <rect x="-468" y="-355" width="715" height="561" rx="30" fill="white"></rect>
      </g>
      <circle cx="12.5" cy="12.5" r="12.5" fill="#83B3D3"></circle>
      <g clip-path="url(#clip1_0_1)">
        <path d="M12 17H13V11H12V17Z" fill="white"></path>
        <path d="M13 8H12V9H13V8Z" fill="white"></path>
      </g>
    </g>
    <defs>
      <filter id="filter0_d_0_1" x="-725" y="-766" width="1230" height="3345" filterUnits="userSpaceOnUse" color-interpolation-filters="sRGB">
        <feFlood flood-opacity="0" result="BackgroundImageFix"></feFlood>
        <feColorMatrix in="SourceAlpha" type="matrix" values="0 0 0 0 0 0 0 0 0 0 0 0 0 0 0 0 0 0 127 0" result="hardAlpha"></feColorMatrix>
        <feOffset></feOffset>
        <feGaussianBlur stdDeviation="7.5"></feGaussianBlur>
        <feColorMatrix type="matrix" values="0 0 0 0 0 0 0 0 0 0 0 0 0 0 0 0 0 0 0.2 0"></feColorMatrix>
        <feBlend mode="normal" in2="BackgroundImageFix" result="effect1_dropShadow_0_1"></feBlend>
        <feBlend mode="normal" in="SourceGraphic" in2="effect1_dropShadow_0_1" result="shape"></feBlend>
      </filter>
      <filter id="filter1_d_0_1" x="-518" y="-380" width="815" height="661" filterUnits="userSpaceOnUse" color-interpolation-filters="sRGB">
        <feFlood flood-opacity="0" result="BackgroundImageFix"></feFlood>
        <feColorMatrix in="SourceAlpha" type="matrix" values="0 0 0 0 0 0 0 0 0 0 0 0 0 0 0 0 0 0 127 0" result="hardAlpha"></feColorMatrix>
        <feOffset dy="25"></feOffset>
        <feGaussianBlur stdDeviation="25"></feGaussianBlur>
        <feColorMatrix type="matrix" values="0 0 0 0 0 0 0 0 0 0 0 0 0 0 0 0 0 0 0.15 0"></feColorMatrix>
        <feBlend mode="normal" in2="BackgroundImageFix" result="effect1_dropShadow_0_1"></feBlend>
        <feBlend mode="normal" in="SourceGraphic" in2="effect1_dropShadow_0_1" result="shape"></feBlend>
      </filter>
      <clipPath id="clip0_0_1">
        <rect width="1280" height="3315" fill="white" transform="translate(-750 -751)"></rect>
      </clipPath>
      <clipPath id="clip1_0_1">
        <rect width="1" height="9" fill="white" transform="translate(12 8)"></rect>
      </clipPath>
    </defs>
  </symbol>
  <symbol fill="none" xmlns="http://www.w3.org/2000/svg" viewBox="0 0 316 203" id="modal-tooltip-advice">
    <g filter="url(#filter0_d_33716_645)">
      <rect x="30" y="15" width="256" height="143" rx="10" fill="#333333"></rect>
    </g>
    <path d="M56.512 40.704L56.928 42.128H57.008L57.328 40.656L59.472 34.8H60.832L58 42.08C57.712 42.8373 57.456 43.472 57.232 43.984C57.0187 44.4853 56.8 44.896 56.576 45.216C56.352 45.5253 56.112 45.7493 55.856 45.888C55.6 46.016 55.2853 46.08 54.912 46.08C54.56 46.08 54.2773 46.0533 54.064 46C53.8613 45.936 53.6693 45.8453 53.488 45.728L53.888 44.624C54.1013 44.7413 54.2987 44.816 54.48 44.848C54.6613 44.88 54.8267 44.896 54.976 44.896C55.2747 44.896 55.5253 44.7467 55.728 44.448C55.9307 44.1387 56.1067 43.6853 56.256 43.088L52.112 34.8H53.648L56.512 40.704ZM63.2636 42.4H62.5276V46H61.2476V38H62.5276V41.616L63.2156 41.392L65.7756 38H67.1676L64.6876 41.216L64.0156 41.744L64.8476 42.384L67.5196 46H65.9356L63.2636 42.4ZM68.7603 38.592C69.1656 38.3467 69.6349 38.1653 70.1683 38.048C70.7123 37.9307 71.2776 37.872 71.8643 37.872C72.4189 37.872 72.8616 37.9467 73.1923 38.096C73.5336 38.2453 73.7896 38.4427 73.9603 38.688C74.1416 38.9227 74.2589 39.184 74.3123 39.472C74.3763 39.76 74.4083 40.048 74.4083 40.336C74.4083 40.976 74.3923 41.6 74.3603 42.208C74.3283 42.816 74.3123 43.392 74.3123 43.936C74.3123 44.3307 74.3283 44.704 74.3603 45.056C74.3923 45.408 74.4509 45.7333 74.5363 46.032H73.5923L73.2563 44.912H73.1763C73.0803 45.0613 72.9576 45.2107 72.8083 45.36C72.6696 45.4987 72.4989 45.6267 72.2963 45.744C72.0936 45.8507 71.8589 45.9413 71.5923 46.016C71.3256 46.0907 71.0216 46.128 70.6803 46.128C70.3389 46.128 70.0189 46.0747 69.7203 45.968C69.4323 45.8613 69.1816 45.712 68.9683 45.52C68.7549 45.3173 68.5843 45.0773 68.4563 44.8C68.3389 44.5227 68.2803 44.208 68.2803 43.856C68.2803 43.3867 68.3763 42.9973 68.5683 42.688C68.7603 42.368 69.0269 42.1173 69.3683 41.936C69.7203 41.744 70.1363 41.6107 70.6163 41.536C71.1069 41.4507 71.6456 41.408 72.2323 41.408C72.3816 41.408 72.5256 41.408 72.6643 41.408C72.8136 41.408 72.9629 41.4187 73.1123 41.44C73.1443 41.12 73.1603 40.832 73.1603 40.576C73.1603 39.9893 73.0429 39.5787 72.8083 39.344C72.5736 39.1093 72.1469 38.992 71.5283 38.992C71.3469 38.992 71.1496 39.008 70.9363 39.04C70.7336 39.0613 70.5203 39.0987 70.2963 39.152C70.0829 39.1947 69.8749 39.2533 69.6723 39.328C69.4803 39.392 69.3096 39.4667 69.1603 39.552L68.7603 38.592ZM71.0323 45.008C71.3309 45.008 71.5976 44.9707 71.8323 44.896C72.0669 44.8107 72.2696 44.7093 72.4403 44.592C72.6109 44.464 72.7496 44.3253 72.8563 44.176C72.9736 44.0267 73.0589 43.8827 73.1123 43.744V42.416C72.9629 42.4053 72.8083 42.4 72.6483 42.4C72.4989 42.3893 72.3496 42.384 72.2003 42.384C71.8696 42.384 71.5443 42.4053 71.2243 42.448C70.9149 42.48 70.6376 42.5493 70.3923 42.656C70.1576 42.752 69.9656 42.8907 69.8163 43.072C69.6776 43.2427 69.6083 43.4613 69.6083 43.728C69.6083 44.1013 69.7416 44.4107 70.0082 44.656C70.2749 44.8907 70.6163 45.008 71.0323 45.008ZM79.4338 42.464L77.0818 46H75.6098L78.1378 42.336L78.6818 41.856L77.8658 41.248L75.7858 38H77.1458L79.3538 41.456H80.1858V38H81.4338V41.616L82.1858 41.392L84.4097 38H85.7538L83.5778 41.248L82.9538 41.76L83.7698 42.4L86.1378 46H84.6178L82.2658 42.4H81.4338V46H80.1858V42.24L79.4338 42.464ZM92.3646 41.264L92.4126 40.272H92.3646L91.7086 41.296L88.1086 46H87.3726V38H88.6526V42.88L88.6046 43.824H88.6686L89.2926 42.832L92.8926 38H93.6446V46H92.3646V41.264ZM101.211 39.12H98.699V46H97.419V39.12H94.907V38H101.211V39.12ZM108.072 45.36C107.752 45.616 107.347 45.8187 106.856 45.968C106.376 46.1173 105.864 46.192 105.32 46.192C104.712 46.192 104.184 46.096 103.736 45.904C103.288 45.7013 102.92 45.4187 102.632 45.056C102.344 44.6827 102.131 44.24 101.992 43.728C101.853 43.216 101.784 42.64 101.784 42C101.784 40.6347 102.088 39.5947 102.696 38.88C103.304 38.1653 104.173 37.808 105.304 37.808C105.667 37.808 106.029 37.8507 106.392 37.936C106.755 38.0107 107.08 38.16 107.368 38.384C107.656 38.608 107.891 38.928 108.072 39.344C108.253 39.7493 108.344 40.288 108.344 40.96C108.344 41.312 108.312 41.7013 108.248 42.128H103.112C103.112 42.5973 103.16 43.0133 103.256 43.376C103.352 43.7387 103.501 44.048 103.704 44.304C103.907 44.5493 104.168 44.7413 104.488 44.88C104.819 45.008 105.219 45.072 105.688 45.072C106.051 45.072 106.413 45.008 106.776 44.88C107.139 44.752 107.411 44.6027 107.592 44.432L108.072 45.36ZM105.32 38.928C104.691 38.928 104.184 39.0933 103.8 39.424C103.427 39.7547 103.203 40.32 103.128 41.12H107.096C107.096 40.3093 106.941 39.744 106.632 39.424C106.323 39.0933 105.885 38.928 105.32 38.928ZM116.639 42.4H115.903V46H114.623V38H115.903V41.616L116.591 41.392L119.151 38H120.543L118.063 41.216L117.391 41.744L118.223 42.384L120.895 46H119.311L116.639 42.4ZM121.643 42C121.643 40.6453 121.942 39.6107 122.539 38.896C123.147 38.1707 124.017 37.808 125.147 37.808C125.745 37.808 126.262 37.9093 126.699 38.112C127.147 38.304 127.515 38.5867 127.803 38.96C128.091 39.3227 128.305 39.7653 128.443 40.288C128.582 40.8 128.651 41.3707 128.651 42C128.651 43.3547 128.347 44.3947 127.739 45.12C127.142 45.8347 126.278 46.192 125.147 46.192C124.55 46.192 124.027 46.096 123.579 45.904C123.142 45.7013 122.779 45.4187 122.491 45.056C122.203 44.6827 121.99 44.24 121.851 43.728C121.713 43.2053 121.643 42.6293 121.643 42ZM122.971 42C122.971 42.4053 123.009 42.7947 123.083 43.168C123.169 43.5413 123.297 43.8667 123.467 44.144C123.638 44.4213 123.862 44.6453 124.139 44.816C124.417 44.9867 124.753 45.072 125.147 45.072C126.598 45.0827 127.323 44.0587 127.323 42C127.323 41.584 127.281 41.1893 127.195 40.816C127.121 40.4427 126.998 40.1173 126.827 39.84C126.657 39.5627 126.433 39.344 126.155 39.184C125.878 39.0133 125.542 38.928 125.147 38.928C123.697 38.9173 122.971 39.9413 122.971 42ZM134.88 39.12H132.56C132.528 39.568 132.496 40.0533 132.464 40.576C132.432 41.088 132.384 41.6053 132.32 42.128C132.256 42.64 132.17 43.136 132.064 43.616C131.957 44.0853 131.818 44.5013 131.648 44.864C131.488 45.2267 131.285 45.52 131.04 45.744C130.805 45.9573 130.522 46.064 130.192 46.064C129.989 46.064 129.813 46.0533 129.664 46.032C129.514 46.0107 129.381 45.9733 129.264 45.92L129.456 44.848C129.584 44.8907 129.722 44.912 129.872 44.912C130.085 44.912 130.277 44.8213 130.448 44.64C130.618 44.4587 130.768 44.1173 130.896 43.616C131.024 43.104 131.13 42.4 131.216 41.504C131.301 40.608 131.36 39.44 131.392 38H136.16V46H134.88V39.12ZM143.615 41.264L143.663 40.272H143.615L142.959 41.296L139.359 46H138.623V38H139.903V42.88L139.855 43.824H139.919L140.543 42.832L144.143 38H144.895V46H143.615V41.264ZM148.189 38V40.176C148.189 40.464 148.205 40.7253 148.237 40.96C148.269 41.184 148.333 41.3813 148.429 41.552C148.525 41.712 148.664 41.84 148.845 41.936C149.026 42.0213 149.266 42.064 149.565 42.064C150.045 42.064 150.44 42.0107 150.749 41.904C151.058 41.7973 151.293 41.68 151.453 41.552V38H152.733V46H151.453V42.64C151.282 42.7467 151.026 42.864 150.685 42.992C150.354 43.12 149.896 43.184 149.309 43.184C148.914 43.184 148.568 43.1413 148.269 43.056C147.97 42.9707 147.72 42.8213 147.517 42.608C147.314 42.3947 147.16 42.112 147.053 41.76C146.957 41.408 146.909 40.9653 146.909 40.432V38H148.189ZM161.041 45.36C160.721 45.616 160.315 45.8187 159.825 45.968C159.345 46.1173 158.833 46.192 158.289 46.192C157.681 46.192 157.153 46.096 156.705 45.904C156.257 45.7013 155.889 45.4187 155.601 45.056C155.313 44.6827 155.099 44.24 154.961 43.728C154.822 43.216 154.753 42.64 154.753 42C154.753 40.6347 155.057 39.5947 155.665 38.88C156.273 38.1653 157.142 37.808 158.273 37.808C158.635 37.808 158.998 37.8507 159.361 37.936C159.723 38.0107 160.049 38.16 160.337 38.384C160.625 38.608 160.859 38.928 161.041 39.344C161.222 39.7493 161.313 40.288 161.313 40.96C161.313 41.312 161.281 41.7013 161.217 42.128H156.081C156.081 42.5973 156.129 43.0133 156.225 43.376C156.321 43.7387 156.47 44.048 156.673 44.304C156.875 44.5493 157.137 44.7413 157.457 44.88C157.787 45.008 158.187 45.072 158.657 45.072C159.019 45.072 159.382 45.008 159.745 44.88C160.107 44.752 160.379 44.6027 160.561 44.432L161.041 45.36ZM158.289 38.928C157.659 38.928 157.153 39.0933 156.769 39.424C156.395 39.7547 156.171 40.32 156.097 41.12H160.065C160.065 40.3093 159.91 39.744 159.601 39.424C159.291 39.0933 158.854 38.928 158.289 38.928ZM168.61 45.472C168.29 45.7067 167.911 45.8827 167.474 46C167.037 46.128 166.578 46.192 166.098 46.192C165.479 46.192 164.957 46.096 164.53 45.904C164.103 45.7013 163.751 45.4187 163.474 45.056C163.207 44.6827 163.01 44.24 162.882 43.728C162.765 43.2053 162.706 42.6293 162.706 42C162.706 40.6453 163.005 39.6107 163.602 38.896C164.199 38.1707 165.058 37.808 166.178 37.808C166.69 37.808 167.122 37.8507 167.474 37.936C167.837 38.0107 168.162 38.1227 168.45 38.272L168.082 39.376C167.837 39.2373 167.565 39.1307 167.266 39.056C166.967 38.9707 166.647 38.928 166.306 38.928C164.791 38.928 164.034 39.952 164.034 42C164.034 42.4053 164.071 42.7947 164.146 43.168C164.231 43.5307 164.365 43.856 164.546 44.144C164.738 44.4213 164.983 44.6453 165.282 44.816C165.591 44.9867 165.97 45.072 166.418 45.072C166.802 45.072 167.143 45.0133 167.442 44.896C167.751 44.7787 168.002 44.6453 168.194 44.496L168.61 45.472ZM175.227 39.12H172.715V46H171.435V39.12H168.923V38H175.227V39.12ZM176.498 38.016C176.871 37.9947 177.26 37.968 177.666 37.936C178.082 37.904 178.594 37.888 179.202 37.888C180.258 37.888 181.015 38.0533 181.474 38.384C181.932 38.704 182.162 39.1947 182.162 39.856C182.162 40.2293 182.05 40.5973 181.826 40.96C181.612 41.312 181.255 41.5733 180.754 41.744V41.808C181.383 41.9253 181.826 42.144 182.082 42.464C182.338 42.784 182.466 43.2107 182.466 43.744C182.466 44.576 182.167 45.1787 181.57 45.552C180.972 45.9253 180.076 46.112 178.882 46.112C178.434 46.112 178.018 46.096 177.634 46.064C177.25 46.0427 176.871 46.016 176.498 45.984V38.016ZM177.778 44.928C177.98 44.9493 178.178 44.9653 178.37 44.976C178.572 44.9867 178.807 44.992 179.074 44.992C179.788 44.992 180.316 44.8907 180.658 44.688C181.01 44.4853 181.186 44.1387 181.186 43.648C181.186 43.264 181.036 42.9547 180.738 42.72C180.45 42.4747 179.932 42.352 179.186 42.352H177.778V44.928ZM179.346 41.376C179.538 41.376 179.724 41.344 179.906 41.28C180.087 41.216 180.247 41.1307 180.386 41.024C180.535 40.9067 180.652 40.7733 180.738 40.624C180.834 40.4747 180.882 40.3147 180.882 40.144C180.882 39.7173 180.754 39.424 180.498 39.264C180.242 39.0933 179.794 39.008 179.154 39.008C178.812 39.008 178.54 39.0133 178.338 39.024C178.146 39.0347 177.959 39.0453 177.778 39.056V41.376H179.346ZM184.034 42C184.034 40.6453 184.333 39.6107 184.93 38.896C185.538 38.1707 186.407 37.808 187.538 37.808C188.135 37.808 188.653 37.9093 189.09 38.112C189.538 38.304 189.906 38.5867 190.194 38.96C190.482 39.3227 190.695 39.7653 190.834 40.288C190.973 40.8 191.042 41.3707 191.042 42C191.042 43.3547 190.738 44.3947 190.13 45.12C189.533 45.8347 188.669 46.192 187.538 46.192C186.941 46.192 186.418 46.096 185.97 45.904C185.533 45.7013 185.17 45.4187 184.882 45.056C184.594 44.6827 184.381 44.24 184.242 43.728C184.103 43.2053 184.034 42.6293 184.034 42ZM185.362 42C185.362 42.4053 185.399 42.7947 185.474 43.168C185.559 43.5413 185.687 43.8667 185.858 44.144C186.029 44.4213 186.253 44.6453 186.53 44.816C186.807 44.9867 187.143 45.072 187.538 45.072C188.989 45.0827 189.714 44.0587 189.714 42C189.714 41.584 189.671 41.1893 189.586 40.816C189.511 40.4427 189.389 40.1173 189.218 39.84C189.047 39.5627 188.823 39.344 188.546 39.184C188.269 39.0133 187.933 38.928 187.538 38.928C186.087 38.9173 185.362 39.9413 185.362 42ZM204.398 48.032H203.534L203.294 46H197.278L197.038 48.032H196.174V44.88H197.118C197.203 44.7627 197.315 44.5547 197.454 44.256C197.592 43.9467 197.726 43.52 197.854 42.976C197.992 42.4213 198.11 41.7387 198.206 40.928C198.312 40.1067 198.376 39.1307 198.398 38H203.23V44.88H204.398V48.032ZM201.95 44.88V39.12H199.55C199.528 39.568 199.491 40.0587 199.438 40.592C199.384 41.1147 199.31 41.6427 199.214 42.176C199.128 42.6987 199.016 43.1947 198.878 43.664C198.739 44.1333 198.579 44.5387 198.398 44.88H201.95ZM211.822 45.36C211.502 45.616 211.097 45.8187 210.606 45.968C210.126 46.1173 209.614 46.192 209.07 46.192C208.462 46.192 207.934 46.096 207.486 45.904C207.038 45.7013 206.67 45.4187 206.382 45.056C206.094 44.6827 205.881 44.24 205.742 43.728C205.603 43.216 205.534 42.64 205.534 42C205.534 40.6347 205.838 39.5947 206.446 38.88C207.054 38.1653 207.923 37.808 209.054 37.808C209.417 37.808 209.779 37.8507 210.142 37.936C210.505 38.0107 210.83 38.16 211.118 38.384C211.406 38.608 211.641 38.928 211.822 39.344C212.003 39.7493 212.094 40.288 212.094 40.96C212.094 41.312 212.062 41.7013 211.998 42.128H206.862C206.862 42.5973 206.91 43.0133 207.006 43.376C207.102 43.7387 207.251 44.048 207.454 44.304C207.657 44.5493 207.918 44.7413 208.238 44.88C208.569 45.008 208.969 45.072 209.438 45.072C209.801 45.072 210.163 45.008 210.526 44.88C210.889 44.752 211.161 44.6027 211.342 44.432L211.822 45.36ZM209.07 38.928C208.441 38.928 207.934 39.0933 207.55 39.424C207.177 39.7547 206.953 40.32 206.878 41.12H210.846C210.846 40.3093 210.691 39.744 210.382 39.424C210.073 39.0933 209.635 38.928 209.07 38.928ZM219.211 39.12H216.699V46H215.419V39.12H212.907V38H219.211V39.12ZM226.072 45.36C225.752 45.616 225.347 45.8187 224.856 45.968C224.376 46.1173 223.864 46.192 223.32 46.192C222.712 46.192 222.184 46.096 221.736 45.904C221.288 45.7013 220.92 45.4187 220.632 45.056C220.344 44.6827 220.131 44.24 219.992 43.728C219.853 43.216 219.784 42.64 219.784 42C219.784 40.6347 220.088 39.5947 220.696 38.88C221.304 38.1653 222.173 37.808 223.304 37.808C223.667 37.808 224.029 37.8507 224.392 37.936C224.755 38.0107 225.08 38.16 225.368 38.384C225.656 38.608 225.891 38.928 226.072 39.344C226.253 39.7493 226.344 40.288 226.344 40.96C226.344 41.312 226.312 41.7013 226.248 42.128H221.112C221.112 42.5973 221.16 43.0133 221.256 43.376C221.352 43.7387 221.501 44.048 221.704 44.304C221.907 44.5493 222.168 44.7413 222.488 44.88C222.819 45.008 223.219 45.072 223.688 45.072C224.051 45.072 224.413 45.008 224.776 44.88C225.139 44.752 225.411 44.6027 225.592 44.432L226.072 45.36ZM223.32 38.928C222.691 38.928 222.184 39.0933 221.8 39.424C221.427 39.7547 221.203 40.32 221.128 41.12H225.096C225.096 40.3093 224.941 39.744 224.632 39.424C224.323 39.0933 223.885 38.928 223.32 38.928ZM233.349 41.264L233.397 40.272H233.349L232.693 41.296L229.093 46H228.357V38H229.637V42.88L229.589 43.824H229.653L230.277 42.832L233.877 38H234.629V46H233.349V41.264ZM230.197 34.768C230.304 35.2587 230.485 35.6 230.741 35.792C231.008 35.984 231.312 36.08 231.653 36.08C231.994 36.08 232.298 35.9787 232.565 35.776C232.832 35.5733 233.013 35.2427 233.109 34.784L234.069 35.088C233.973 35.7067 233.696 36.1813 233.237 36.512C232.789 36.8427 232.25 37.008 231.621 37.008C231.333 37.008 231.045 36.9707 230.757 36.896C230.48 36.8213 230.229 36.7093 230.005 36.56C229.781 36.4107 229.589 36.2187 229.429 35.984C229.269 35.7493 229.162 35.472 229.109 35.152L230.197 34.768ZM236.643 45.312C236.643 45.056 236.729 44.848 236.899 44.688C237.07 44.528 237.289 44.448 237.555 44.448C237.886 44.448 238.153 44.5653 238.355 44.8C238.569 45.0347 238.675 45.376 238.675 45.824C238.675 46.208 238.622 46.544 238.515 46.832C238.409 47.12 238.27 47.3653 238.099 47.568C237.929 47.7813 237.742 47.952 237.539 48.08C237.337 48.2187 237.134 48.32 236.931 48.384L236.531 47.76C236.915 47.6107 237.198 47.376 237.379 47.056C237.571 46.7467 237.667 46.432 237.667 46.112C237.571 46.144 237.481 46.16 237.395 46.16C237.182 46.16 237.001 46.0907 236.851 45.952C236.713 45.8027 236.643 45.5893 236.643 45.312ZM55.248 63.4H54.512V67H53.232V59H54.512V62.616L55.2 62.392L57.76 59H59.152L56.672 62.216L56 62.744L56.832 63.384L59.504 67H57.92L55.248 63.4ZM60.2528 63C60.2528 61.6453 60.5514 60.6107 61.1488 59.896C61.7568 59.1707 62.6261 58.808 63.7568 58.808C64.3541 58.808 64.8714 58.9093 65.3088 59.112C65.7568 59.304 66.1248 59.5867 66.4128 59.96C66.7008 60.3227 66.9141 60.7653 67.0528 61.288C67.1914 61.8 67.2608 62.3707 67.2608 63C67.2608 64.3547 66.9568 65.3947 66.3488 66.12C65.7514 66.8347 64.8874 67.192 63.7568 67.192C63.1594 67.192 62.6368 67.096 62.1888 66.904C61.7514 66.7013 61.3888 66.4187 61.1008 66.056C60.8128 65.6827 60.5994 65.24 60.4608 64.728C60.3221 64.2053 60.2528 63.6293 60.2528 63ZM61.5807 63C61.5807 63.4053 61.6181 63.7947 61.6928 64.168C61.7781 64.5413 61.9061 64.8667 62.0768 65.144C62.2474 65.4213 62.4714 65.6453 62.7488 65.816C63.0261 65.9867 63.3621 66.072 63.7568 66.072C65.2074 66.0827 65.9328 65.0587 65.9328 63C65.9328 62.584 65.8901 62.1893 65.8048 61.816C65.7301 61.4427 65.6074 61.1173 65.4368 60.84C65.2661 60.5627 65.0421 60.344 64.7648 60.184C64.4874 60.0133 64.1514 59.928 63.7568 59.928C62.3061 59.9173 61.5807 60.9413 61.5807 63ZM74.1329 60.12H71.6209V67H70.3409V60.12H67.8289V59H74.1329V60.12ZM74.7059 63C74.7059 61.6453 75.0045 60.6107 75.6019 59.896C76.2099 59.1707 77.0792 58.808 78.2099 58.808C78.8072 58.808 79.3245 58.9093 79.7619 59.112C80.2099 59.304 80.5779 59.5867 80.8659 59.96C81.1539 60.3227 81.3672 60.7653 81.5059 61.288C81.6445 61.8 81.7139 62.3707 81.7139 63C81.7139 64.3547 81.4099 65.3947 80.8019 66.12C80.2045 66.8347 79.3405 67.192 78.2099 67.192C77.6125 67.192 77.0899 67.096 76.6419 66.904C76.2045 66.7013 75.8419 66.4187 75.5539 66.056C75.2659 65.6827 75.0525 65.24 74.9139 64.728C74.7752 64.2053 74.7059 63.6293 74.7059 63ZM76.0339 63C76.0339 63.4053 76.0712 63.7947 76.1459 64.168C76.2312 64.5413 76.3592 64.8667 76.5299 65.144C76.7005 65.4213 76.9245 65.6453 77.2019 65.816C77.4792 65.9867 77.8152 66.072 78.2099 66.072C79.6605 66.0827 80.3859 65.0587 80.3859 63C80.3859 62.584 80.3432 62.1893 80.2579 61.816C80.1832 61.4427 80.0605 61.1173 79.8899 60.84C79.7192 60.5627 79.4952 60.344 79.2179 60.184C78.9405 60.0133 78.6045 59.928 78.2099 59.928C76.7592 59.9173 76.0339 60.9413 76.0339 63ZM83.732 59H84.612L84.852 59.96H84.916C85.1613 59.5867 85.476 59.304 85.86 59.112C86.2547 58.9093 86.7027 58.808 87.204 58.808C88.2707 58.808 89.0653 59.1227 89.588 59.752C90.1107 60.3813 90.372 61.4107 90.372 62.84C90.372 63.512 90.2813 64.12 90.1 64.664C89.9293 65.1973 89.684 65.6507 89.364 66.024C89.044 66.3973 88.6547 66.6853 88.196 66.888C87.748 67.0907 87.2467 67.192 86.692 67.192C86.2973 67.192 85.9827 67.1653 85.748 67.112C85.524 67.0693 85.2787 66.9893 85.012 66.872V70.2H83.732V59ZM86.964 59.928C86.42 59.928 85.988 60.072 85.668 60.36C85.3587 60.6373 85.14 61.064 85.012 61.64V65.608C85.204 65.7573 85.4227 65.8747 85.668 65.96C85.9133 66.0347 86.2387 66.072 86.644 66.072C87.38 66.072 87.9613 65.8 88.388 65.256C88.8253 64.7013 89.044 63.8907 89.044 62.824C89.044 62.3867 89.0067 61.992 88.932 61.64C88.8573 61.2773 88.7347 60.9733 88.564 60.728C88.404 60.472 88.1907 60.2747 87.924 60.136C87.668 59.9973 87.348 59.928 86.964 59.928ZM93.6683 65.88C94.0629 65.944 94.4416 65.976 94.8043 65.976C95.4763 65.976 95.9456 65.848 96.2123 65.592C96.4789 65.3253 96.6123 64.952 96.6123 64.472C96.6123 64.0453 96.4789 63.6933 96.2123 63.416C95.9563 63.1387 95.5029 63 94.8523 63C94.6709 63 94.4736 63.0053 94.2603 63.016C94.0469 63.0267 93.8496 63.0587 93.6683 63.112V65.88ZM93.6683 62.056C93.9243 62.0133 94.1696 61.9867 94.4043 61.976C94.6389 61.9547 94.8629 61.944 95.0763 61.944C95.6203 61.944 96.0736 62.008 96.4363 62.136C96.8096 62.2533 97.1083 62.4187 97.3323 62.632C97.5563 62.8453 97.7109 63.1013 97.7963 63.4C97.8923 63.688 97.9403 63.9973 97.9403 64.328C97.9403 65.2987 97.6683 66.0027 97.1243 66.44C96.5909 66.8773 95.7216 67.096 94.5163 67.096C93.8336 67.096 93.1243 67.064 92.3883 67V59H93.6683V62.056ZM99.2043 59H100.484V67H99.2043V59ZM108.791 66.36C108.471 66.616 108.065 66.8187 107.575 66.968C107.095 67.1173 106.583 67.192 106.039 67.192C105.431 67.192 104.903 67.096 104.455 66.904C104.007 66.7013 103.639 66.4187 103.351 66.056C103.063 65.6827 102.849 65.24 102.711 64.728C102.572 64.216 102.503 63.64 102.503 63C102.503 61.6347 102.807 60.5947 103.415 59.88C104.023 59.1653 104.892 58.808 106.023 58.808C106.385 58.808 106.748 58.8507 107.111 58.936C107.473 59.0107 107.799 59.16 108.087 59.384C108.375 59.608 108.609 59.928 108.791 60.344C108.972 60.7493 109.063 61.288 109.063 61.96C109.063 62.312 109.031 62.7013 108.967 63.128H103.831C103.831 63.5973 103.879 64.0133 103.975 64.376C104.071 64.7387 104.22 65.048 104.423 65.304C104.625 65.5493 104.887 65.7413 105.207 65.88C105.537 66.008 105.937 66.072 106.407 66.072C106.769 66.072 107.132 66.008 107.495 65.88C107.857 65.752 108.129 65.6027 108.311 65.432L108.791 66.36ZM106.039 59.928C105.409 59.928 104.903 60.0933 104.519 60.424C104.145 60.7547 103.921 61.32 103.847 62.12H107.815C107.815 61.3093 107.66 60.744 107.351 60.424C107.041 60.0933 106.604 59.928 106.039 59.928ZM116.077 60.424C116.429 59.912 116.819 59.5547 117.245 59.352C117.672 59.1387 118.205 59.032 118.845 59.032C119.827 59.032 120.579 59.352 121.101 59.992C121.635 60.632 121.901 61.576 121.901 62.824C121.901 64.264 121.592 65.352 120.973 66.088C120.365 66.824 119.512 67.192 118.413 67.192C117.24 67.192 116.36 66.7867 115.773 65.976C115.187 65.1653 114.893 63.8907 114.893 62.152C114.893 61.2347 114.936 60.4507 115.021 59.8C115.117 59.1493 115.251 58.6 115.421 58.152C115.603 57.704 115.816 57.3467 116.061 57.08C116.317 56.8133 116.6 56.6053 116.909 56.456C117.229 56.296 117.576 56.184 117.949 56.12C118.323 56.056 118.723 56.0027 119.149 55.96C119.704 55.9067 120.136 55.848 120.445 55.784C120.765 55.7093 121.021 55.5813 121.213 55.4L121.357 56.552C121.251 56.648 121.133 56.728 121.005 56.792C120.877 56.856 120.723 56.9093 120.541 56.952C120.36 56.9947 120.141 57.032 119.885 57.064C119.64 57.096 119.352 57.1227 119.021 57.144C118.563 57.176 118.157 57.2347 117.805 57.32C117.464 57.3947 117.165 57.5493 116.909 57.784C116.664 58.008 116.467 58.3333 116.317 58.76C116.179 59.176 116.083 59.7307 116.029 60.424H116.077ZM116.221 63.016C116.221 63.4213 116.264 63.8107 116.349 64.184C116.435 64.5573 116.563 64.888 116.733 65.176C116.915 65.4533 117.144 65.672 117.421 65.832C117.699 65.992 118.024 66.072 118.397 66.072C119.133 66.072 119.677 65.8107 120.029 65.288C120.392 64.7547 120.573 63.9707 120.573 62.936C120.573 62.5307 120.536 62.1573 120.461 61.816C120.387 61.4747 120.269 61.1813 120.109 60.936C119.949 60.68 119.747 60.488 119.501 60.36C119.256 60.2213 118.963 60.152 118.621 60.152C117.789 60.1413 117.181 60.3867 116.797 60.888C116.413 61.3787 116.221 62.088 116.221 63.016ZM126.084 64.184L126.532 65.72H126.612L126.964 64.168L128.516 59H129.812L127.444 66.184C127.263 66.7067 127.081 67.2133 126.9 67.704C126.729 68.1947 126.537 68.632 126.324 69.016C126.111 69.4 125.871 69.704 125.604 69.928C125.337 70.1627 125.028 70.28 124.676 70.28C124.292 70.28 123.977 70.2267 123.732 70.12L123.956 69.016C124.095 69.0693 124.228 69.096 124.356 69.096C124.655 69.096 124.943 68.936 125.22 68.616C125.497 68.3067 125.727 67.768 125.908 67L122.692 59H124.164L126.084 64.184ZM138.038 69.032H137.174L136.934 67H130.918L130.678 69.032H129.814V65.88H130.758C130.844 65.7627 130.956 65.5547 131.094 65.256C131.233 64.9467 131.366 64.52 131.494 63.976C131.633 63.4213 131.75 62.7387 131.846 61.928C131.953 61.1067 132.017 60.1307 132.038 59H136.87V65.88H138.038V69.032ZM135.59 65.88V60.12H133.19C133.169 60.568 133.132 61.0587 133.078 61.592C133.025 62.1147 132.95 62.6427 132.854 63.176C132.769 63.6987 132.657 64.1947 132.518 64.664C132.38 65.1333 132.22 65.5387 132.038 65.88H135.59ZM141.975 64.184L142.423 65.72H142.503L142.855 64.168L144.407 59H145.703L143.335 66.184C143.153 66.7067 142.972 67.2133 142.791 67.704C142.62 68.1947 142.428 68.632 142.215 69.016C142.001 69.4 141.761 69.704 141.495 69.928C141.228 70.1627 140.919 70.28 140.567 70.28C140.183 70.28 139.868 70.2267 139.623 70.12L139.847 69.016C139.985 69.0693 140.119 69.096 140.247 69.096C140.545 69.096 140.833 68.936 141.111 68.616C141.388 68.3067 141.617 67.768 141.799 67L138.583 59H140.055L141.975 64.184ZM152.18 60.12H149.668V67H148.388V60.12H145.876V59H152.18V60.12ZM162.672 66.472C162.352 66.7067 161.974 66.8827 161.536 67C161.099 67.128 160.64 67.192 160.16 67.192C159.542 67.192 159.019 67.096 158.592 66.904C158.166 66.7013 157.814 66.4187 157.536 66.056C157.27 65.6827 157.072 65.24 156.944 64.728C156.827 64.2053 156.768 63.6293 156.768 63C156.768 61.6453 157.067 60.6107 157.664 59.896C158.262 59.1707 159.12 58.808 160.24 58.808C160.752 58.808 161.184 58.8507 161.536 58.936C161.899 59.0107 162.224 59.1227 162.512 59.272L162.144 60.376C161.899 60.2373 161.627 60.1307 161.328 60.056C161.03 59.9707 160.71 59.928 160.368 59.928C158.854 59.928 158.096 60.952 158.096 63C158.096 63.4053 158.134 63.7947 158.208 64.168C158.294 64.5307 158.427 64.856 158.608 65.144C158.8 65.4213 159.046 65.6453 159.344 65.816C159.654 65.9867 160.032 66.072 160.48 66.072C160.864 66.072 161.206 66.0133 161.504 65.896C161.814 65.7787 162.064 65.6453 162.256 65.496L162.672 66.472ZM168.701 59.016C169.074 58.9947 169.463 58.968 169.869 58.936C170.285 58.904 170.797 58.888 171.405 58.888C172.461 58.888 173.218 59.0533 173.677 59.384C174.135 59.704 174.365 60.1947 174.365 60.856C174.365 61.2293 174.253 61.5973 174.029 61.96C173.815 62.312 173.458 62.5733 172.957 62.744V62.808C173.586 62.9253 174.029 63.144 174.285 63.464C174.541 63.784 174.669 64.2107 174.669 64.744C174.669 65.576 174.37 66.1787 173.773 66.552C173.175 66.9253 172.279 67.112 171.085 67.112C170.637 67.112 170.221 67.096 169.837 67.064C169.453 67.0427 169.074 67.016 168.701 66.984V59.016ZM169.981 65.928C170.183 65.9493 170.381 65.9653 170.573 65.976C170.775 65.9867 171.01 65.992 171.277 65.992C171.991 65.992 172.519 65.8907 172.861 65.688C173.213 65.4853 173.389 65.1387 173.389 64.648C173.389 64.264 173.239 63.9547 172.941 63.72C172.653 63.4747 172.135 63.352 171.389 63.352H169.981V65.928ZM171.549 62.376C171.741 62.376 171.927 62.344 172.109 62.28C172.29 62.216 172.45 62.1307 172.589 62.024C172.738 61.9067 172.855 61.7733 172.941 61.624C173.037 61.4747 173.085 61.3147 173.085 61.144C173.085 60.7173 172.957 60.424 172.701 60.264C172.445 60.0933 171.997 60.008 171.357 60.008C171.015 60.008 170.743 60.0133 170.541 60.024C170.349 60.0347 170.162 60.0453 169.981 60.056V62.376H171.549ZM176.557 59.592C176.962 59.3467 177.432 59.1653 177.965 59.048C178.509 58.9307 179.074 58.872 179.661 58.872C180.216 58.872 180.658 58.9467 180.989 59.096C181.33 59.2453 181.586 59.4427 181.757 59.688C181.938 59.9227 182.056 60.184 182.109 60.472C182.173 60.76 182.205 61.048 182.205 61.336C182.205 61.976 182.189 62.6 182.157 63.208C182.125 63.816 182.109 64.392 182.109 64.936C182.109 65.3307 182.125 65.704 182.157 66.056C182.189 66.408 182.248 66.7333 182.333 67.032H181.389L181.053 65.912H180.973C180.877 66.0613 180.754 66.2107 180.605 66.36C180.466 66.4987 180.296 66.6267 180.093 66.744C179.89 66.8507 179.656 66.9413 179.389 67.016C179.122 67.0907 178.818 67.128 178.477 67.128C178.136 67.128 177.816 67.0747 177.517 66.968C177.229 66.8613 176.978 66.712 176.765 66.52C176.552 66.3173 176.381 66.0773 176.253 65.8C176.136 65.5227 176.077 65.208 176.077 64.856C176.077 64.3867 176.173 63.9973 176.365 63.688C176.557 63.368 176.824 63.1173 177.165 62.936C177.517 62.744 177.933 62.6107 178.413 62.536C178.904 62.4507 179.442 62.408 180.029 62.408C180.178 62.408 180.322 62.408 180.461 62.408C180.61 62.408 180.76 62.4187 180.909 62.44C180.941 62.12 180.957 61.832 180.957 61.576C180.957 60.9893 180.84 60.5787 180.605 60.344C180.37 60.1093 179.944 59.992 179.325 59.992C179.144 59.992 178.946 60.008 178.733 60.04C178.53 60.0613 178.317 60.0987 178.093 60.152C177.88 60.1947 177.672 60.2533 177.469 60.328C177.277 60.392 177.106 60.4667 176.957 60.552L176.557 59.592ZM178.829 66.008C179.128 66.008 179.394 65.9707 179.629 65.896C179.864 65.8107 180.066 65.7093 180.237 65.592C180.408 65.464 180.546 65.3253 180.653 65.176C180.77 65.0267 180.856 64.8827 180.909 64.744V63.416C180.76 63.4053 180.605 63.4 180.445 63.4C180.296 63.3893 180.146 63.384 179.997 63.384C179.666 63.384 179.341 63.4053 179.021 63.448C178.712 63.48 178.434 63.5493 178.189 63.656C177.954 63.752 177.762 63.8907 177.613 64.072C177.474 64.2427 177.405 64.4613 177.405 64.728C177.405 65.1013 177.538 65.4107 177.805 65.656C178.072 65.8907 178.413 66.008 178.829 66.008ZM191.231 62.248L191.327 60.728H191.247L190.671 61.96L188.735 65.096H188.287L186.271 61.96L185.743 60.728H185.679L185.807 62.232V67H184.623V59H185.887L188.127 62.584L188.591 63.512H188.623L189.103 62.552L191.199 59H192.479V67H191.231V62.248ZM199.927 62.264L199.975 61.272H199.927L199.271 62.296L195.671 67H194.935V59H196.215V63.88L196.167 64.824H196.231L196.855 63.832L200.455 59H201.207V67H199.927V62.264ZM203.222 66.312C203.222 66.056 203.307 65.848 203.478 65.688C203.648 65.528 203.867 65.448 204.134 65.448C204.464 65.448 204.731 65.5653 204.934 65.8C205.147 66.0347 205.254 66.376 205.254 66.824C205.254 67.208 205.2 67.544 205.094 67.832C204.987 68.12 204.848 68.3653 204.678 68.568C204.507 68.7813 204.32 68.952 204.118 69.08C203.915 69.2187 203.712 69.32 203.51 69.384L203.11 68.76C203.494 68.6107 203.776 68.376 203.958 68.056C204.15 67.7467 204.246 67.432 204.246 67.112C204.15 67.144 204.059 67.16 203.974 67.16C203.76 67.16 203.579 67.0907 203.43 66.952C203.291 66.8027 203.222 66.5893 203.222 66.312ZM210.279 59.016C210.652 58.9947 211.042 58.968 211.447 58.936C211.863 58.904 212.375 58.888 212.983 58.888C214.039 58.888 214.796 59.0533 215.255 59.384C215.714 59.704 215.943 60.1947 215.943 60.856C215.943 61.2293 215.831 61.5973 215.607 61.96C215.394 62.312 215.036 62.5733 214.535 62.744V62.808C215.164 62.9253 215.607 63.144 215.863 63.464C216.119 63.784 216.247 64.2107 216.247 64.744C216.247 65.576 215.948 66.1787 215.351 66.552C214.754 66.9253 213.858 67.112 212.663 67.112C212.215 67.112 211.799 67.096 211.415 67.064C211.031 67.0427 210.652 67.016 210.279 66.984V59.016ZM211.559 65.928C211.762 65.9493 211.959 65.9653 212.151 65.976C212.354 65.9867 212.588 65.992 212.855 65.992C213.57 65.992 214.098 65.8907 214.439 65.688C214.791 65.4853 214.967 65.1387 214.967 64.648C214.967 64.264 214.818 63.9547 214.519 63.72C214.231 63.4747 213.714 63.352 212.967 63.352H211.559V65.928ZM213.127 62.376C213.319 62.376 213.506 62.344 213.687 62.28C213.868 62.216 214.028 62.1307 214.167 62.024C214.316 61.9067 214.434 61.7733 214.519 61.624C214.615 61.4747 214.663 61.3147 214.663 61.144C214.663 60.7173 214.535 60.424 214.279 60.264C214.023 60.0933 213.575 60.008 212.935 60.008C212.594 60.008 212.322 60.0133 212.119 60.024C211.927 60.0347 211.74 60.0453 211.559 60.056V62.376H213.127ZM217.815 63C217.815 61.6453 218.114 60.6107 218.711 59.896C219.319 59.1707 220.189 58.808 221.319 58.808C221.917 58.808 222.434 58.9093 222.871 59.112C223.319 59.304 223.687 59.5867 223.975 59.96C224.263 60.3227 224.477 60.7653 224.615 61.288C224.754 61.8 224.823 62.3707 224.823 63C224.823 64.3547 224.519 65.3947 223.911 66.12C223.314 66.8347 222.45 67.192 221.319 67.192C220.722 67.192 220.199 67.096 219.751 66.904C219.314 66.7013 218.951 66.4187 218.663 66.056C218.375 65.6827 218.162 65.24 218.023 64.728C217.885 64.2053 217.815 63.6293 217.815 63ZM219.143 63C219.143 63.4053 219.181 63.7947 219.255 64.168C219.341 64.5413 219.469 64.8667 219.639 65.144C219.81 65.4213 220.034 65.6453 220.311 65.816C220.589 65.9867 220.925 66.072 221.319 66.072C222.77 66.0827 223.495 65.0587 223.495 63C223.495 62.584 223.453 62.1893 223.367 61.816C223.293 61.4427 223.17 61.1173 222.999 60.84C222.829 60.5627 222.605 60.344 222.327 60.184C222.05 60.0133 221.714 59.928 221.319 59.928C219.869 59.9173 219.143 60.9413 219.143 63ZM227.609 63.432V62.392H228.729C228.921 62.392 229.108 62.36 229.289 62.296C229.481 62.232 229.652 62.1467 229.801 62.04C229.951 61.9227 230.068 61.7893 230.153 61.64C230.249 61.48 230.297 61.3147 230.297 61.144C230.297 60.728 230.153 60.4347 229.865 60.264C229.577 60.0933 229.145 60.008 228.569 60.008C228.153 60.008 227.769 60.072 227.417 60.2C227.076 60.328 226.809 60.4507 226.617 60.568L226.249 59.576C226.569 59.3947 226.943 59.2347 227.369 59.096C227.807 58.9573 228.324 58.888 228.921 58.888C230.692 58.888 231.577 59.544 231.577 60.856C231.577 61.2293 231.455 61.5973 231.209 61.96C230.975 62.312 230.633 62.5627 230.185 62.712V62.776C230.815 62.8933 231.252 63.1173 231.497 63.448C231.753 63.7787 231.881 64.216 231.881 64.76C231.881 65.1013 231.812 65.416 231.673 65.704C231.535 65.992 231.327 66.2427 231.049 66.456C230.772 66.6693 230.42 66.84 229.993 66.968C229.577 67.0853 229.092 67.144 228.537 67.144C227.993 67.144 227.54 67.096 227.177 67C226.825 66.904 226.505 66.7867 226.217 66.648L226.585 65.592C226.831 65.7307 227.124 65.8373 227.465 65.912C227.817 65.9867 228.196 66.024 228.601 66.024C229.252 66.024 229.748 65.912 230.089 65.688C230.431 65.464 230.601 65.1227 230.601 64.664C230.601 64.28 230.441 63.9813 230.121 63.768C229.801 63.544 229.273 63.432 228.537 63.432H227.609ZM233.904 59H234.784L235.024 59.96H235.088C235.333 59.5867 235.648 59.304 236.032 59.112C236.427 58.9093 236.875 58.808 237.376 58.808C238.443 58.808 239.237 59.1227 239.76 59.752C240.283 60.3813 240.544 61.4107 240.544 62.84C240.544 63.512 240.453 64.12 240.272 64.664C240.101 65.1973 239.856 65.6507 239.536 66.024C239.216 66.3973 238.827 66.6853 238.368 66.888C237.92 67.0907 237.419 67.192 236.864 67.192C236.469 67.192 236.155 67.1653 235.92 67.112C235.696 67.0693 235.451 66.9893 235.184 66.872V70.2H233.904V59ZM237.136 59.928C236.592 59.928 236.16 60.072 235.84 60.36C235.531 60.6373 235.312 61.064 235.184 61.64V65.608C235.376 65.7573 235.595 65.8747 235.84 65.96C236.085 66.0347 236.411 66.072 236.816 66.072C237.552 66.072 238.133 65.8 238.56 65.256C238.997 64.7013 239.216 63.8907 239.216 62.824C239.216 62.3867 239.179 61.992 239.104 61.64C239.029 61.2773 238.907 60.9733 238.736 60.728C238.576 60.472 238.363 60.2747 238.096 60.136C237.84 59.9973 237.52 59.928 237.136 59.928ZM242.432 59.592C242.837 59.3467 243.307 59.1653 243.84 59.048C244.384 58.9307 244.949 58.872 245.536 58.872C246.091 58.872 246.533 58.9467 246.864 59.096C247.205 59.2453 247.461 59.4427 247.632 59.688C247.813 59.9227 247.931 60.184 247.984 60.472C248.048 60.76 248.08 61.048 248.08 61.336C248.08 61.976 248.064 62.6 248.032 63.208C248 63.816 247.984 64.392 247.984 64.936C247.984 65.3307 248 65.704 248.032 66.056C248.064 66.408 248.123 66.7333 248.208 67.032H247.264L246.928 65.912H246.848C246.752 66.0613 246.629 66.2107 246.48 66.36C246.341 66.4987 246.171 66.6267 245.968 66.744C245.765 66.8507 245.531 66.9413 245.264 67.016C244.997 67.0907 244.693 67.128 244.352 67.128C244.011 67.128 243.691 67.0747 243.392 66.968C243.104 66.8613 242.853 66.712 242.64 66.52C242.427 66.3173 242.256 66.0773 242.128 65.8C242.011 65.5227 241.952 65.208 241.952 64.856C241.952 64.3867 242.048 63.9973 242.24 63.688C242.432 63.368 242.699 63.1173 243.04 62.936C243.392 62.744 243.808 62.6107 244.288 62.536C244.779 62.4507 245.317 62.408 245.904 62.408C246.053 62.408 246.197 62.408 246.336 62.408C246.485 62.408 246.635 62.4187 246.784 62.44C246.816 62.12 246.832 61.832 246.832 61.576C246.832 60.9893 246.715 60.5787 246.48 60.344C246.245 60.1093 245.819 59.992 245.2 59.992C245.019 59.992 244.821 60.008 244.608 60.04C244.405 60.0613 244.192 60.0987 243.968 60.152C243.755 60.1947 243.547 60.2533 243.344 60.328C243.152 60.392 242.981 60.4667 242.832 60.552L242.432 59.592ZM244.704 66.008C245.003 66.008 245.269 65.9707 245.504 65.896C245.739 65.8107 245.941 65.7093 246.112 65.592C246.283 65.464 246.421 65.3253 246.528 65.176C246.645 65.0267 246.731 64.8827 246.784 64.744V63.416C246.635 63.4053 246.48 63.4 246.32 63.4C246.171 63.3893 246.021 63.384 245.872 63.384C245.541 63.384 245.216 63.4053 244.896 63.448C244.587 63.48 244.309 63.5493 244.064 63.656C243.829 63.752 243.637 63.8907 243.488 64.072C243.349 64.2427 243.28 64.4613 243.28 64.728C243.28 65.1013 243.413 65.4107 243.68 65.656C243.947 65.8907 244.288 66.008 244.704 66.008ZM255.954 66.472C255.634 66.7067 255.255 66.8827 254.818 67C254.38 67.128 253.922 67.192 253.442 67.192C252.823 67.192 252.3 67.096 251.874 66.904C251.447 66.7013 251.095 66.4187 250.818 66.056C250.551 65.6827 250.354 65.24 250.226 64.728C250.108 64.2053 250.05 63.6293 250.05 63C250.05 61.6453 250.348 60.6107 250.946 59.896C251.543 59.1707 252.402 58.808 253.522 58.808C254.034 58.808 254.466 58.8507 254.818 58.936C255.18 59.0107 255.506 59.1227 255.794 59.272L255.426 60.376C255.18 60.2373 254.908 60.1307 254.61 60.056C254.311 59.9707 253.991 59.928 253.65 59.928C252.135 59.928 251.378 60.952 251.378 63C251.378 63.4053 251.415 63.7947 251.49 64.168C251.575 64.5307 251.708 64.856 251.89 65.144C252.082 65.4213 252.327 65.6453 252.626 65.816C252.935 65.9867 253.314 66.072 253.762 66.072C254.146 66.072 254.487 66.0133 254.786 65.896C255.095 65.7787 255.346 65.6453 255.538 65.496L255.954 66.472ZM262.57 60.12H260.058V67H258.778V60.12H256.266V59H262.57V60.12ZM55.248 84.4H54.512V88H53.232V80H54.512V83.616L55.2 83.392L57.76 80H59.152L56.672 83.216L56 83.744L56.832 84.384L59.504 88H57.92L55.248 84.4ZM60.2528 84C60.2528 82.6453 60.5514 81.6107 61.1488 80.896C61.7568 80.1707 62.6261 79.808 63.7568 79.808C64.3541 79.808 64.8714 79.9093 65.3088 80.112C65.7568 80.304 66.1248 80.5867 66.4128 80.96C66.7008 81.3227 66.9141 81.7653 67.0528 82.288C67.1914 82.8 67.2608 83.3707 67.2608 84C67.2608 85.3547 66.9568 86.3947 66.3488 87.12C65.7514 87.8347 64.8874 88.192 63.7568 88.192C63.1594 88.192 62.6368 88.096 62.1888 87.904C61.7514 87.7013 61.3888 87.4187 61.1008 87.056C60.8128 86.6827 60.5994 86.24 60.4608 85.728C60.3221 85.2053 60.2528 84.6293 60.2528 84ZM61.5807 84C61.5807 84.4053 61.6181 84.7947 61.6928 85.168C61.7781 85.5413 61.9061 85.8667 62.0768 86.144C62.2474 86.4213 62.4714 86.6453 62.7488 86.816C63.0261 86.9867 63.3621 87.072 63.7568 87.072C65.2074 87.0827 65.9328 86.0587 65.9328 84C65.9328 83.584 65.8901 83.1893 65.8048 82.816C65.7301 82.4427 65.6074 82.1173 65.4368 81.84C65.2661 81.5627 65.0421 81.344 64.7648 81.184C64.4874 81.0133 64.1514 80.928 63.7568 80.928C62.3061 80.9173 61.5807 81.9413 61.5807 84ZM74.1329 81.12H71.6209V88H70.3409V81.12H67.8289V80H74.1329V81.12ZM74.7059 84C74.7059 82.6453 75.0045 81.6107 75.6019 80.896C76.2099 80.1707 77.0792 79.808 78.2099 79.808C78.8072 79.808 79.3245 79.9093 79.7619 80.112C80.2099 80.304 80.5779 80.5867 80.8659 80.96C81.1539 81.3227 81.3672 81.7653 81.5059 82.288C81.6445 82.8 81.7139 83.3707 81.7139 84C81.7139 85.3547 81.4099 86.3947 80.8019 87.12C80.2045 87.8347 79.3405 88.192 78.2099 88.192C77.6125 88.192 77.0899 88.096 76.6419 87.904C76.2045 87.7013 75.8419 87.4187 75.5539 87.056C75.2659 86.6827 75.0525 86.24 74.9139 85.728C74.7752 85.2053 74.7059 84.6293 74.7059 84ZM76.0339 84C76.0339 84.4053 76.0712 84.7947 76.1459 85.168C76.2312 85.5413 76.3592 85.8667 76.5299 86.144C76.7005 86.4213 76.9245 86.6453 77.2019 86.816C77.4792 86.9867 77.8152 87.072 78.2099 87.072C79.6605 87.0827 80.3859 86.0587 80.3859 84C80.3859 83.584 80.3432 83.1893 80.2579 82.816C80.1832 82.4427 80.0605 82.1173 79.8899 81.84C79.7192 81.5627 79.4952 81.344 79.2179 81.184C78.9405 81.0133 78.6045 80.928 78.2099 80.928C76.7592 80.9173 76.0339 81.9413 76.0339 84ZM83.732 80H84.612L84.852 80.96H84.916C85.1613 80.5867 85.476 80.304 85.86 80.112C86.2547 79.9093 86.7027 79.808 87.204 79.808C88.2707 79.808 89.0653 80.1227 89.588 80.752C90.1107 81.3813 90.372 82.4107 90.372 83.84C90.372 84.512 90.2813 85.12 90.1 85.664C89.9293 86.1973 89.684 86.6507 89.364 87.024C89.044 87.3973 88.6547 87.6853 88.196 87.888C87.748 88.0907 87.2467 88.192 86.692 88.192C86.2973 88.192 85.9827 88.1653 85.748 88.112C85.524 88.0693 85.2787 87.9893 85.012 87.872V91.2H83.732V80ZM86.964 80.928C86.42 80.928 85.988 81.072 85.668 81.36C85.3587 81.6373 85.14 82.064 85.012 82.64V86.608C85.204 86.7573 85.4227 86.8747 85.668 86.96C85.9133 87.0347 86.2387 87.072 86.644 87.072C87.38 87.072 87.9613 86.8 88.388 86.256C88.8253 85.7013 89.044 84.8907 89.044 83.824C89.044 83.3867 89.0067 82.992 88.932 82.64C88.8573 82.2773 88.7347 81.9733 88.564 81.728C88.404 81.472 88.1907 81.2747 87.924 81.136C87.668 80.9973 87.348 80.928 86.964 80.928ZM93.6683 86.88C94.0629 86.944 94.4416 86.976 94.8043 86.976C95.4763 86.976 95.9456 86.848 96.2123 86.592C96.4789 86.3253 96.6123 85.952 96.6123 85.472C96.6123 85.0453 96.4789 84.6933 96.2123 84.416C95.9563 84.1387 95.5029 84 94.8523 84C94.6709 84 94.4736 84.0053 94.2603 84.016C94.0469 84.0267 93.8496 84.0587 93.6683 84.112V86.88ZM93.6683 83.056C93.9243 83.0133 94.1696 82.9867 94.4043 82.976C94.6389 82.9547 94.8629 82.944 95.0763 82.944C95.6203 82.944 96.0736 83.008 96.4363 83.136C96.8096 83.2533 97.1083 83.4187 97.3323 83.632C97.5563 83.8453 97.7109 84.1013 97.7963 84.4C97.8923 84.688 97.9403 84.9973 97.9403 85.328C97.9403 86.2987 97.6683 87.0027 97.1243 87.44C96.5909 87.8773 95.7216 88.096 94.5163 88.096C93.8336 88.096 93.1243 88.064 92.3883 88V80H93.6683V83.056ZM99.2043 80H100.484V88H99.2043V80ZM105.047 83.904L102.359 80H103.927L105.447 82.208L105.895 83.12L106.359 82.208L107.911 80H109.351L106.647 83.84L109.511 88H107.991L106.295 85.568L105.815 84.608L105.319 85.568L103.591 88H102.167L105.047 83.904ZM114.565 84C114.565 82.6453 114.864 81.6107 115.461 80.896C116.069 80.1707 116.939 79.808 118.069 79.808C118.667 79.808 119.184 79.9093 119.621 80.112C120.069 80.304 120.437 80.5867 120.725 80.96C121.013 81.3227 121.227 81.7653 121.365 82.288C121.504 82.8 121.573 83.3707 121.573 84C121.573 85.3547 121.269 86.3947 120.661 87.12C120.064 87.8347 119.2 88.192 118.069 88.192C117.472 88.192 116.949 88.096 116.501 87.904C116.064 87.7013 115.701 87.4187 115.413 87.056C115.125 86.6827 114.912 86.24 114.773 85.728C114.635 85.2053 114.565 84.6293 114.565 84ZM115.893 84C115.893 84.4053 115.931 84.7947 116.005 85.168C116.091 85.5413 116.219 85.8667 116.389 86.144C116.56 86.4213 116.784 86.6453 117.061 86.816C117.339 86.9867 117.675 87.072 118.069 87.072C119.52 87.0827 120.245 86.0587 120.245 84C120.245 83.584 120.203 83.1893 120.117 82.816C120.043 82.4427 119.92 82.1173 119.749 81.84C119.579 81.5627 119.355 81.344 119.077 81.184C118.8 81.0133 118.464 80.928 118.069 80.928C116.619 80.9173 115.893 81.9413 115.893 84ZM128.445 81.12H125.933V88H124.653V81.12H122.141V80H128.445V81.12ZM140.122 84.624C140.122 85.1147 140.047 85.5787 139.898 86.016C139.749 86.4427 139.53 86.8213 139.242 87.152C138.954 87.472 138.597 87.728 138.17 87.92C137.743 88.1013 137.258 88.192 136.714 88.192C136.181 88.192 135.701 88.1067 135.274 87.936C134.847 87.7653 134.479 87.5147 134.17 87.184C133.861 86.8427 133.621 86.4267 133.45 85.936C133.29 85.4453 133.21 84.88 133.21 84.24C133.21 83.184 133.343 82.2133 133.61 81.328C133.887 80.432 134.266 79.6533 134.746 78.992C135.226 78.3307 135.791 77.7973 136.442 77.392C137.103 76.976 137.818 76.7147 138.586 76.608L138.858 77.632C138.261 77.7387 137.717 77.9413 137.226 78.24C136.735 78.5387 136.303 78.9067 135.93 79.344C135.567 79.7813 135.269 80.272 135.034 80.816C134.799 81.36 134.639 81.92 134.554 82.496C134.725 82.208 135.013 81.9467 135.418 81.712C135.823 81.4667 136.319 81.344 136.906 81.344C137.909 81.344 138.693 81.632 139.258 82.208C139.834 82.784 140.122 83.5893 140.122 84.624ZM138.794 84.752C138.794 83.9947 138.618 83.424 138.266 83.04C137.914 82.656 137.37 82.464 136.634 82.464C136.111 82.464 135.658 82.592 135.274 82.848C134.901 83.104 134.639 83.392 134.49 83.712C134.469 83.8613 134.458 83.984 134.458 84.08C134.458 84.176 134.458 84.2827 134.458 84.4C134.458 84.7307 134.501 85.056 134.586 85.376C134.682 85.696 134.826 85.984 135.018 86.24C135.21 86.4853 135.445 86.688 135.722 86.848C136.01 86.9973 136.346 87.072 136.73 87.072C137.039 87.072 137.317 87.0133 137.562 86.896C137.818 86.7787 138.037 86.6187 138.218 86.416C138.399 86.2133 138.538 85.968 138.634 85.68C138.741 85.392 138.794 85.0827 138.794 84.752ZM153.538 90.032H152.674L152.434 88H146.418L146.178 90.032H145.314V86.88H146.258C146.344 86.7627 146.456 86.5547 146.594 86.256C146.733 85.9467 146.866 85.52 146.994 84.976C147.133 84.4213 147.25 83.7387 147.346 82.928C147.453 82.1067 147.517 81.1307 147.538 80H152.37V86.88H153.538V90.032ZM151.09 86.88V81.12H148.69C148.669 81.568 148.632 82.0587 148.578 82.592C148.525 83.1147 148.45 83.6427 148.354 84.176C148.269 84.6987 148.157 85.1947 148.018 85.664C147.88 86.1333 147.72 86.5387 147.538 86.88H151.09ZM154.675 84C154.675 82.6453 154.973 81.6107 155.571 80.896C156.179 80.1707 157.048 79.808 158.179 79.808C158.776 79.808 159.293 79.9093 159.731 80.112C160.179 80.304 160.547 80.5867 160.835 80.96C161.123 81.3227 161.336 81.7653 161.475 82.288C161.613 82.8 161.683 83.3707 161.683 84C161.683 85.3547 161.379 86.3947 160.771 87.12C160.173 87.8347 159.309 88.192 158.179 88.192C157.581 88.192 157.059 88.096 156.611 87.904C156.173 87.7013 155.811 87.4187 155.523 87.056C155.235 86.6827 155.021 86.24 154.883 85.728C154.744 85.2053 154.675 84.6293 154.675 84ZM156.003 84C156.003 84.4053 156.04 84.7947 156.115 85.168C156.2 85.5413 156.328 85.8667 156.499 86.144C156.669 86.4213 156.893 86.6453 157.171 86.816C157.448 86.9867 157.784 87.072 158.179 87.072C159.629 87.0827 160.355 86.0587 160.355 84C160.355 83.584 160.312 83.1893 160.227 82.816C160.152 82.4427 160.029 82.1173 159.859 81.84C159.688 81.5627 159.464 81.344 159.187 81.184C158.909 81.0133 158.573 80.928 158.179 80.928C156.728 80.9173 156.003 81.9413 156.003 84ZM168.462 86.816H170.702V79.072L170.862 78.128L170.222 78.88L168.462 80.144L167.854 79.328L171.374 76.608H171.95V86.816H174.142V88H168.462V86.816ZM176.541 85.328C176.541 84.656 176.717 84.0747 177.069 83.584C177.421 83.0827 177.97 82.6293 178.717 82.224C178.45 82.064 178.2 81.8987 177.965 81.728C177.741 81.5467 177.538 81.344 177.357 81.12C177.186 80.896 177.048 80.6453 176.941 80.368C176.845 80.0907 176.797 79.7707 176.797 79.408C176.797 78.992 176.866 78.6133 177.005 78.272C177.154 77.9307 177.362 77.6373 177.629 77.392C177.906 77.1467 178.232 76.9547 178.605 76.816C178.989 76.6773 179.421 76.608 179.901 76.608C180.349 76.608 180.754 76.672 181.117 76.8C181.48 76.928 181.784 77.104 182.029 77.328C182.285 77.552 182.482 77.8187 182.621 78.128C182.76 78.4373 182.829 78.7787 182.829 79.152C182.829 79.76 182.69 80.2987 182.413 80.768C182.136 81.2267 181.677 81.68 181.037 82.128C181.314 82.288 181.576 82.464 181.821 82.656C182.077 82.848 182.296 83.0613 182.477 83.296C182.669 83.5307 182.818 83.7973 182.925 84.096C183.032 84.384 183.085 84.7147 183.085 85.088C183.085 85.5467 183.01 85.968 182.861 86.352C182.712 86.7253 182.493 87.0507 182.205 87.328C181.917 87.5947 181.565 87.808 181.149 87.968C180.733 88.1173 180.258 88.192 179.725 88.192C179.213 88.192 178.76 88.1173 178.365 87.968C177.97 87.8187 177.634 87.616 177.357 87.36C177.09 87.104 176.888 86.8053 176.749 86.464C176.61 86.112 176.541 85.7333 176.541 85.328ZM181.837 85.168C181.837 84.848 181.773 84.5707 181.645 84.336C181.517 84.0907 181.346 83.872 181.133 83.68C180.93 83.4773 180.696 83.296 180.429 83.136C180.162 82.976 179.885 82.8213 179.597 82.672C178.946 83.0347 178.482 83.44 178.205 83.888C177.928 84.336 177.789 84.7627 177.789 85.168C177.789 85.424 177.832 85.6693 177.917 85.904C178.002 86.1387 178.13 86.3413 178.301 86.512C178.472 86.6827 178.68 86.8213 178.925 86.928C179.181 87.024 179.474 87.072 179.805 87.072C180.072 87.072 180.328 87.0347 180.573 86.96C180.818 86.8747 181.032 86.7573 181.213 86.608C181.405 86.448 181.554 86.2507 181.661 86.016C181.778 85.7707 181.837 85.488 181.837 85.168ZM178.045 79.376C178.045 79.6747 178.104 79.9413 178.221 80.176C178.338 80.4 178.493 80.6027 178.685 80.784C178.888 80.9653 179.117 81.136 179.373 81.296C179.629 81.4453 179.896 81.5893 180.173 81.728C180.653 81.3547 181.005 80.9867 181.229 80.624C181.464 80.2613 181.581 79.8613 181.581 79.424C181.581 78.88 181.41 78.464 181.069 78.176C180.738 77.8773 180.338 77.728 179.869 77.728C179.581 77.728 179.325 77.776 179.101 77.872C178.877 77.968 178.685 78.0907 178.525 78.24C178.365 78.3893 178.242 78.5653 178.157 78.768C178.082 78.96 178.045 79.1627 178.045 79.376ZM193.974 81.12H191.654C191.622 81.568 191.59 82.0533 191.558 82.576C191.526 83.088 191.478 83.6053 191.414 84.128C191.35 84.64 191.264 85.136 191.158 85.616C191.051 86.0853 190.912 86.5013 190.742 86.864C190.582 87.2267 190.379 87.52 190.134 87.744C189.899 87.9573 189.616 88.064 189.286 88.064C189.083 88.064 188.907 88.0533 188.758 88.032C188.608 88.0107 188.475 87.9733 188.357 87.92L188.55 86.848C188.678 86.8907 188.816 86.912 188.965 86.912C189.179 86.912 189.371 86.8213 189.542 86.64C189.712 86.4587 189.862 86.1173 189.99 85.616C190.118 85.104 190.224 84.4 190.31 83.504C190.395 82.608 190.454 81.44 190.486 80H195.254V88H193.974V81.12ZM203.556 87.36C203.236 87.616 202.831 87.8187 202.34 87.968C201.86 88.1173 201.348 88.192 200.804 88.192C200.196 88.192 199.668 88.096 199.22 87.904C198.772 87.7013 198.404 87.4187 198.116 87.056C197.828 86.6827 197.615 86.24 197.476 85.728C197.338 85.216 197.268 84.64 197.268 84C197.268 82.6347 197.572 81.5947 198.18 80.88C198.788 80.1653 199.658 79.808 200.788 79.808C201.151 79.808 201.514 79.8507 201.876 79.936C202.239 80.0107 202.564 80.16 202.852 80.384C203.14 80.608 203.375 80.928 203.556 81.344C203.738 81.7493 203.828 82.288 203.828 82.96C203.828 83.312 203.796 83.7013 203.732 84.128H198.596C198.596 84.5973 198.644 85.0133 198.74 85.376C198.836 85.7387 198.986 86.048 199.188 86.304C199.391 86.5493 199.652 86.7413 199.972 86.88C200.303 87.008 200.703 87.072 201.172 87.072C201.535 87.072 201.898 87.008 202.26 86.88C202.623 86.752 202.895 86.6027 203.076 86.432L203.556 87.36ZM200.804 80.928C200.175 80.928 199.668 81.0933 199.284 81.424C198.911 81.7547 198.687 82.32 198.612 83.12H202.58C202.58 82.3093 202.426 81.744 202.116 81.424C201.807 81.0933 201.37 80.928 200.804 80.928ZM210.945 81.12H208.433V88H207.153V81.12H204.641V80H210.945V81.12ZM210.518 87.264C210.518 86.976 210.598 86.752 210.758 86.592C210.929 86.4213 211.153 86.336 211.43 86.336C211.718 86.336 211.948 86.4213 212.118 86.592C212.289 86.752 212.374 86.976 212.374 87.264C212.374 87.5413 212.289 87.7653 212.118 87.936C211.948 88.1067 211.718 88.192 211.43 88.192C211.153 88.192 210.929 88.1067 210.758 87.936C210.598 87.7653 210.518 87.5413 210.518 87.264ZM225.99 90.064H225.078L224.838 88H216.982L216.742 90.064H215.814V86.816H216.95C217.036 86.6987 217.164 86.4267 217.334 86C217.516 85.5627 217.692 84.944 217.862 84.144C218.044 83.3333 218.204 82.3253 218.342 81.12C218.481 79.904 218.55 78.464 218.55 76.8H224.534V86.816H225.99V90.064ZM223.206 86.816V77.984H219.798C219.766 79.1573 219.702 80.2133 219.606 81.152C219.521 82.0907 219.414 82.9227 219.286 83.648C219.158 84.3627 219.014 84.9813 218.854 85.504C218.694 86.0267 218.529 86.464 218.358 86.816H223.206ZM233.135 87.36C232.815 87.616 232.409 87.8187 231.919 87.968C231.439 88.1173 230.927 88.192 230.383 88.192C229.775 88.192 229.247 88.096 228.799 87.904C228.351 87.7013 227.983 87.4187 227.695 87.056C227.407 86.6827 227.193 86.24 227.055 85.728C226.916 85.216 226.847 84.64 226.847 84C226.847 82.6347 227.151 81.5947 227.759 80.88C228.367 80.1653 229.236 79.808 230.367 79.808C230.729 79.808 231.092 79.8507 231.455 79.936C231.817 80.0107 232.143 80.16 232.431 80.384C232.719 80.608 232.953 80.928 233.135 81.344C233.316 81.7493 233.407 82.288 233.407 82.96C233.407 83.312 233.375 83.7013 233.311 84.128H228.174C228.174 84.5973 228.223 85.0133 228.319 85.376C228.415 85.7387 228.564 86.048 228.767 86.304C228.969 86.5493 229.231 86.7413 229.551 86.88C229.881 87.008 230.281 87.072 230.751 87.072C231.113 87.072 231.476 87.008 231.839 86.88C232.201 86.752 232.473 86.6027 232.655 86.432L233.135 87.36ZM230.383 80.928C229.753 80.928 229.247 81.0933 228.863 81.424C228.489 81.7547 228.265 82.32 228.191 83.12H232.159C232.159 82.3093 232.004 81.744 231.695 81.424C231.385 81.0933 230.948 80.928 230.383 80.928ZM240.524 81.12H238.012V88H236.732V81.12H234.22V80H240.524V81.12ZM246.787 83.264L246.835 82.272H246.787L246.131 83.296L242.531 88H241.795V80H243.075V84.88L243.027 85.824H243.091L243.715 84.832L247.315 80H248.067V88H246.787V83.264ZM60.304 111.032H59.44L59.2 109H53.184L52.944 111.032H52.08V107.88H53.024C53.1093 107.763 53.2213 107.555 53.36 107.256C53.4987 106.947 53.632 106.52 53.76 105.976C53.8987 105.421 54.016 104.739 54.112 103.928C54.2187 103.107 54.2827 102.131 54.304 101H59.136V107.88H60.304V111.032ZM57.856 107.88V102.12H55.456C55.4347 102.568 55.3973 103.059 55.344 103.592C55.2907 104.115 55.216 104.643 55.12 105.176C55.0347 105.699 54.9227 106.195 54.784 106.664C54.6453 107.133 54.4853 107.539 54.304 107.88H57.856ZM61.4403 105C61.4403 103.645 61.7389 102.611 62.3363 101.896C62.9443 101.171 63.8136 100.808 64.9443 100.808C65.5416 100.808 66.0589 100.909 66.4963 101.112C66.9443 101.304 67.3123 101.587 67.6003 101.96C67.8883 102.323 68.1016 102.765 68.2403 103.288C68.3789 103.8 68.4483 104.371 68.4483 105C68.4483 106.355 68.1443 107.395 67.5363 108.12C66.9389 108.835 66.0749 109.192 64.9443 109.192C64.3469 109.192 63.8243 109.096 63.3763 108.904C62.9389 108.701 62.5763 108.419 62.2883 108.056C62.0003 107.683 61.7869 107.24 61.6483 106.728C61.5096 106.205 61.4403 105.629 61.4403 105ZM62.7682 105C62.7682 105.405 62.8056 105.795 62.8803 106.168C62.9656 106.541 63.0936 106.867 63.2643 107.144C63.4349 107.421 63.6589 107.645 63.9363 107.816C64.2136 107.987 64.5496 108.072 64.9443 108.072C66.3949 108.083 67.1203 107.059 67.1203 105C67.1203 104.584 67.0776 104.189 66.9923 103.816C66.9176 103.443 66.7949 103.117 66.6243 102.84C66.4536 102.563 66.2296 102.344 65.9523 102.184C65.6749 102.013 65.3389 101.928 64.9443 101.928C63.4936 101.917 62.7682 102.941 62.7682 105ZM81.372 105.624C81.372 106.115 81.2973 106.579 81.148 107.016C80.9987 107.443 80.78 107.821 80.492 108.152C80.204 108.472 79.8467 108.728 79.42 108.92C78.9933 109.101 78.508 109.192 77.964 109.192C77.4307 109.192 76.9507 109.107 76.524 108.936C76.0973 108.765 75.7293 108.515 75.42 108.184C75.1107 107.843 74.8707 107.427 74.7 106.936C74.54 106.445 74.46 105.88 74.46 105.24C74.46 104.184 74.5933 103.213 74.86 102.328C75.1373 101.432 75.516 100.653 75.996 99.992C76.476 99.3307 77.0413 98.7973 77.692 98.392C78.3533 97.976 79.068 97.7147 79.836 97.608L80.108 98.632C79.5107 98.7387 78.9667 98.9413 78.476 99.24C77.9853 99.5387 77.5533 99.9067 77.18 100.344C76.8173 100.781 76.5187 101.272 76.284 101.816C76.0493 102.36 75.8893 102.92 75.804 103.496C75.9747 103.208 76.2627 102.947 76.668 102.712C77.0733 102.467 77.5693 102.344 78.156 102.344C79.1587 102.344 79.9427 102.632 80.508 103.208C81.084 103.784 81.372 104.589 81.372 105.624ZM80.044 105.752C80.044 104.995 79.868 104.424 79.516 104.04C79.164 103.656 78.62 103.464 77.884 103.464C77.3613 103.464 76.908 103.592 76.524 103.848C76.1507 104.104 75.8893 104.392 75.74 104.712C75.7187 104.861 75.708 104.984 75.708 105.08C75.708 105.176 75.708 105.283 75.708 105.4C75.708 105.731 75.7507 106.056 75.836 106.376C75.932 106.696 76.076 106.984 76.268 107.24C76.46 107.485 76.6947 107.688 76.972 107.848C77.26 107.997 77.596 108.072 77.98 108.072C78.2893 108.072 78.5667 108.013 78.812 107.896C79.068 107.779 79.2867 107.619 79.468 107.416C79.6493 107.213 79.788 106.968 79.884 106.68C79.9907 106.392 80.044 106.083 80.044 105.752ZM92.0204 102.12H89.7004C89.6684 102.568 89.6364 103.053 89.6044 103.576C89.5724 104.088 89.5244 104.605 89.4604 105.128C89.3964 105.64 89.311 106.136 89.2044 106.616C89.0977 107.085 88.959 107.501 88.7884 107.864C88.6284 108.227 88.4257 108.52 88.1804 108.744C87.9457 108.957 87.663 109.064 87.3324 109.064C87.1297 109.064 86.9537 109.053 86.8044 109.032C86.655 109.011 86.5217 108.973 86.4044 108.92L86.5964 107.848C86.7244 107.891 86.863 107.912 87.0124 107.912C87.2257 107.912 87.4177 107.821 87.5884 107.64C87.759 107.459 87.9084 107.117 88.0364 106.616C88.1644 106.104 88.271 105.4 88.3564 104.504C88.4417 103.608 88.5004 102.44 88.5324 101H93.3004V109H92.0204V102.12ZM101.603 108.36C101.283 108.616 100.878 108.819 100.387 108.968C99.9073 109.117 99.3953 109.192 98.8513 109.192C98.2433 109.192 97.7153 109.096 97.2673 108.904C96.8193 108.701 96.4513 108.419 96.1633 108.056C95.8753 107.683 95.6619 107.24 95.5233 106.728C95.3846 106.216 95.3153 105.64 95.3153 105C95.3153 103.635 95.6193 102.595 96.2273 101.88C96.8353 101.165 97.7046 100.808 98.8353 100.808C99.1979 100.808 99.5606 100.851 99.9233 100.936C100.286 101.011 100.611 101.16 100.899 101.384C101.187 101.608 101.422 101.928 101.603 102.344C101.785 102.749 101.875 103.288 101.875 103.96C101.875 104.312 101.843 104.701 101.779 105.128H96.6432C96.6432 105.597 96.6913 106.013 96.7873 106.376C96.8833 106.739 97.0326 107.048 97.2353 107.304C97.4379 107.549 97.6993 107.741 98.0193 107.88C98.3499 108.008 98.7499 108.072 99.2193 108.072C99.5819 108.072 99.9446 108.008 100.307 107.88C100.67 107.752 100.942 107.603 101.123 107.432L101.603 108.36ZM98.8513 101.928C98.2219 101.928 97.7153 102.093 97.3313 102.424C96.9579 102.755 96.7339 103.32 96.6593 104.12H100.627C100.627 103.309 100.473 102.744 100.163 102.424C99.8539 102.093 99.4166 101.928 98.8513 101.928ZM108.992 102.12H106.48V109H105.2V102.12H102.688V101H108.992V102.12ZM114.029 101H114.909L115.149 101.96H115.213C115.458 101.587 115.773 101.304 116.157 101.112C116.552 100.909 117 100.808 117.501 100.808C118.568 100.808 119.362 101.123 119.885 101.752C120.408 102.381 120.669 103.411 120.669 104.84C120.669 105.512 120.578 106.12 120.397 106.664C120.226 107.197 119.981 107.651 119.661 108.024C119.341 108.397 118.952 108.685 118.493 108.888C118.045 109.091 117.544 109.192 116.989 109.192C116.594 109.192 116.28 109.165 116.045 109.112C115.821 109.069 115.576 108.989 115.309 108.872V112.2H114.029V101ZM117.261 101.928C116.717 101.928 116.285 102.072 115.965 102.36C115.656 102.637 115.437 103.064 115.309 103.64V107.608C115.501 107.757 115.72 107.875 115.965 107.96C116.21 108.035 116.536 108.072 116.941 108.072C117.677 108.072 118.258 107.8 118.685 107.256C119.122 106.701 119.341 105.891 119.341 104.824C119.341 104.387 119.304 103.992 119.229 103.64C119.154 103.277 119.032 102.973 118.861 102.728C118.701 102.472 118.488 102.275 118.221 102.136C117.965 101.997 117.645 101.928 117.261 101.928ZM122.557 101.592C122.962 101.347 123.432 101.165 123.965 101.048C124.509 100.931 125.074 100.872 125.661 100.872C126.216 100.872 126.658 100.947 126.989 101.096C127.33 101.245 127.586 101.443 127.757 101.688C127.938 101.923 128.056 102.184 128.109 102.472C128.173 102.76 128.205 103.048 128.205 103.336C128.205 103.976 128.189 104.6 128.157 105.208C128.125 105.816 128.109 106.392 128.109 106.936C128.109 107.331 128.125 107.704 128.157 108.056C128.189 108.408 128.248 108.733 128.333 109.032H127.389L127.053 107.912H126.973C126.877 108.061 126.754 108.211 126.605 108.36C126.466 108.499 126.296 108.627 126.093 108.744C125.89 108.851 125.656 108.941 125.389 109.016C125.122 109.091 124.818 109.128 124.477 109.128C124.136 109.128 123.816 109.075 123.517 108.968C123.229 108.861 122.978 108.712 122.765 108.52C122.552 108.317 122.381 108.077 122.253 107.8C122.136 107.523 122.077 107.208 122.077 106.856C122.077 106.387 122.173 105.997 122.365 105.688C122.557 105.368 122.824 105.117 123.165 104.936C123.517 104.744 123.933 104.611 124.413 104.536C124.904 104.451 125.442 104.408 126.029 104.408C126.178 104.408 126.322 104.408 126.461 104.408C126.61 104.408 126.76 104.419 126.909 104.44C126.941 104.12 126.957 103.832 126.957 103.576C126.957 102.989 126.84 102.579 126.605 102.344C126.37 102.109 125.944 101.992 125.325 101.992C125.144 101.992 124.946 102.008 124.733 102.04C124.53 102.061 124.317 102.099 124.093 102.152C123.88 102.195 123.672 102.253 123.469 102.328C123.277 102.392 123.106 102.467 122.957 102.552L122.557 101.592ZM124.829 108.008C125.128 108.008 125.394 107.971 125.629 107.896C125.864 107.811 126.066 107.709 126.237 107.592C126.408 107.464 126.546 107.325 126.653 107.176C126.77 107.027 126.856 106.883 126.909 106.744V105.416C126.76 105.405 126.605 105.4 126.445 105.4C126.296 105.389 126.146 105.384 125.997 105.384C125.666 105.384 125.341 105.405 125.021 105.448C124.712 105.48 124.434 105.549 124.189 105.656C123.954 105.752 123.762 105.891 123.613 106.072C123.474 106.243 123.405 106.461 123.405 106.728C123.405 107.101 123.538 107.411 123.805 107.656C124.072 107.891 124.413 108.008 124.829 108.008ZM131.391 105.432V104.392H132.511C132.703 104.392 132.889 104.36 133.071 104.296C133.263 104.232 133.433 104.147 133.583 104.04C133.732 103.923 133.849 103.789 133.935 103.64C134.031 103.48 134.079 103.315 134.079 103.144C134.079 102.728 133.935 102.435 133.647 102.264C133.359 102.093 132.927 102.008 132.351 102.008C131.935 102.008 131.551 102.072 131.199 102.2C130.857 102.328 130.591 102.451 130.399 102.568L130.031 101.576C130.351 101.395 130.724 101.235 131.151 101.096C131.588 100.957 132.105 100.888 132.703 100.888C134.473 100.888 135.359 101.544 135.359 102.856C135.359 103.229 135.236 103.597 134.991 103.96C134.756 104.312 134.415 104.563 133.967 104.712V104.776C134.596 104.893 135.033 105.117 135.279 105.448C135.535 105.779 135.663 106.216 135.663 106.76C135.663 107.101 135.593 107.416 135.455 107.704C135.316 107.992 135.108 108.243 134.831 108.456C134.553 108.669 134.201 108.84 133.775 108.968C133.359 109.085 132.873 109.144 132.319 109.144C131.775 109.144 131.321 109.096 130.959 109C130.607 108.904 130.287 108.787 129.999 108.648L130.367 107.592C130.612 107.731 130.905 107.837 131.247 107.912C131.599 107.987 131.977 108.024 132.383 108.024C133.033 108.024 133.529 107.912 133.871 107.688C134.212 107.464 134.383 107.123 134.383 106.664C134.383 106.28 134.223 105.981 133.903 105.768C133.583 105.544 133.055 105.432 132.319 105.432H131.391ZM144.293 104.248L144.389 102.728H144.309L143.733 103.96L141.797 107.096H141.349L139.333 103.96L138.805 102.728H138.741L138.869 104.232V109H137.685V101H138.949L141.189 104.584L141.653 105.512H141.685L142.165 104.552L144.261 101H145.541V109H144.293V104.248ZM153.838 108.36C153.518 108.616 153.112 108.819 152.622 108.968C152.142 109.117 151.63 109.192 151.086 109.192C150.478 109.192 149.95 109.096 149.502 108.904C149.054 108.701 148.686 108.419 148.398 108.056C148.11 107.683 147.896 107.24 147.758 106.728C147.619 106.216 147.55 105.64 147.55 105C147.55 103.635 147.854 102.595 148.462 101.88C149.07 101.165 149.939 100.808 151.07 100.808C151.432 100.808 151.795 100.851 152.158 100.936C152.52 101.011 152.846 101.16 153.134 101.384C153.422 101.608 153.656 101.928 153.838 102.344C154.019 102.749 154.11 103.288 154.11 103.96C154.11 104.312 154.078 104.701 154.014 105.128H148.878C148.878 105.597 148.926 106.013 149.022 106.376C149.118 106.739 149.267 107.048 149.47 107.304C149.672 107.549 149.934 107.741 150.254 107.88C150.584 108.008 150.984 108.072 151.454 108.072C151.816 108.072 152.179 108.008 152.542 107.88C152.904 107.752 153.176 107.603 153.358 107.432L153.838 108.36ZM151.086 101.928C150.456 101.928 149.95 102.093 149.566 102.424C149.192 102.755 148.968 103.32 148.894 104.12H152.862C152.862 103.309 152.707 102.744 152.398 102.424C152.088 102.093 151.651 101.928 151.086 101.928ZM166.587 111.032H165.723L165.483 109H156.123V101H157.403V107.88H160.139V101H161.419V107.88H164.155V101H165.435V107.88H166.587V111.032ZM168.042 101.592C168.447 101.347 168.916 101.165 169.45 101.048C169.994 100.931 170.559 100.872 171.146 100.872C171.7 100.872 172.143 100.947 172.474 101.096C172.815 101.245 173.071 101.443 173.242 101.688C173.423 101.923 173.54 102.184 173.594 102.472C173.658 102.76 173.69 103.048 173.69 103.336C173.69 103.976 173.674 104.6 173.642 105.208C173.61 105.816 173.594 106.392 173.594 106.936C173.594 107.331 173.61 107.704 173.642 108.056C173.674 108.408 173.732 108.733 173.818 109.032H172.874L172.538 107.912H172.458C172.362 108.061 172.239 108.211 172.09 108.36C171.951 108.499 171.78 108.627 171.578 108.744C171.375 108.851 171.14 108.941 170.874 109.016C170.607 109.091 170.303 109.128 169.962 109.128C169.62 109.128 169.3 109.075 169.002 108.968C168.714 108.861 168.463 108.712 168.25 108.52C168.036 108.317 167.866 108.077 167.738 107.8C167.62 107.523 167.562 107.208 167.562 106.856C167.562 106.387 167.658 105.997 167.85 105.688C168.042 105.368 168.308 105.117 168.65 104.936C169.002 104.744 169.418 104.611 169.898 104.536C170.388 104.451 170.927 104.408 171.514 104.408C171.663 104.408 171.807 104.408 171.946 104.408C172.095 104.408 172.244 104.419 172.394 104.44C172.426 104.12 172.442 103.832 172.442 103.576C172.442 102.989 172.324 102.579 172.09 102.344C171.855 102.109 171.428 101.992 170.81 101.992C170.628 101.992 170.431 102.008 170.218 102.04C170.015 102.061 169.802 102.099 169.578 102.152C169.364 102.195 169.156 102.253 168.954 102.328C168.762 102.392 168.591 102.467 168.442 102.552L168.042 101.592ZM170.314 108.008C170.612 108.008 170.879 107.971 171.114 107.896C171.348 107.811 171.551 107.709 171.722 107.592C171.892 107.464 172.031 107.325 172.138 107.176C172.255 107.027 172.34 106.883 172.394 106.744V105.416C172.244 105.405 172.09 105.4 171.93 105.4C171.78 105.389 171.631 105.384 171.482 105.384C171.151 105.384 170.826 105.405 170.506 105.448C170.196 105.48 169.919 105.549 169.674 105.656C169.439 105.752 169.247 105.891 169.098 106.072C168.959 106.243 168.89 106.461 168.89 106.728C168.89 107.101 169.023 107.411 169.289 107.656C169.556 107.891 169.898 108.008 170.314 108.008ZM182.315 109.192C181.739 109.192 181.243 109.107 180.827 108.936C180.422 108.755 180.086 108.504 179.819 108.184C179.563 107.853 179.366 107.459 179.227 107C179.099 106.531 179.019 106.019 178.987 105.464H177.387V109H176.107V101H177.387V104.344H179.003C179.088 103.203 179.398 102.328 179.931 101.72C180.475 101.112 181.28 100.808 182.347 100.808C182.934 100.808 183.43 100.909 183.835 101.112C184.251 101.304 184.587 101.587 184.843 101.96C185.11 102.323 185.302 102.765 185.419 103.288C185.536 103.8 185.595 104.371 185.595 105C185.595 106.355 185.323 107.395 184.779 108.12C184.246 108.835 183.424 109.192 182.315 109.192ZM180.251 105C180.251 105.416 180.283 105.811 180.347 106.184C180.411 106.557 180.523 106.888 180.683 107.176C180.843 107.453 181.056 107.672 181.323 107.832C181.6 107.992 181.942 108.072 182.347 108.072C183.03 108.072 183.52 107.827 183.819 107.336C184.118 106.835 184.267 106.056 184.267 105C184.267 104.584 184.235 104.189 184.171 103.816C184.118 103.443 184.016 103.117 183.867 102.84C183.718 102.552 183.52 102.328 183.275 102.168C183.03 102.008 182.715 101.928 182.331 101.928C181.595 101.928 181.062 102.179 180.731 102.68C180.411 103.171 180.251 103.944 180.251 105ZM192.461 102.12H189.949V109H188.669V102.12H186.157V101H192.461V102.12ZM198.938 108.472C198.618 108.707 198.239 108.883 197.802 109C197.365 109.128 196.906 109.192 196.426 109.192C195.807 109.192 195.285 109.096 194.858 108.904C194.431 108.701 194.079 108.419 193.802 108.056C193.535 107.683 193.338 107.24 193.21 106.728C193.093 106.205 193.034 105.629 193.034 105C193.034 103.645 193.333 102.611 193.93 101.896C194.527 101.171 195.386 100.808 196.506 100.808C197.018 100.808 197.45 100.851 197.802 100.936C198.165 101.011 198.49 101.123 198.778 101.272L198.41 102.376C198.165 102.237 197.893 102.131 197.594 102.056C197.295 101.971 196.975 101.928 196.634 101.928C195.119 101.928 194.362 102.952 194.362 105C194.362 105.405 194.399 105.795 194.474 106.168C194.559 106.531 194.693 106.856 194.874 107.144C195.066 107.421 195.311 107.645 195.61 107.816C195.919 107.987 196.298 108.072 196.746 108.072C197.13 108.072 197.471 108.013 197.77 107.896C198.079 107.779 198.33 107.645 198.522 107.496L198.938 108.472ZM204.685 105.688L203.453 105.88L201.341 109H199.789L201.709 106.264L202.349 105.672C201.794 105.587 201.319 105.363 200.925 105C200.541 104.637 200.349 104.147 200.349 103.528C200.349 103.048 200.429 102.637 200.589 102.296C200.759 101.955 200.999 101.672 201.309 101.448C201.618 101.224 201.986 101.064 202.413 100.968C202.839 100.861 203.319 100.808 203.853 100.808C204.247 100.808 204.615 100.835 204.957 100.888C205.298 100.941 205.634 101 205.965 101.064V109H204.685V105.688ZM204.685 102.088C204.546 102.035 204.391 101.997 204.221 101.976C204.05 101.944 203.901 101.928 203.773 101.928C203.09 101.928 202.567 102.051 202.205 102.296C201.853 102.541 201.677 102.931 201.677 103.464C201.677 103.944 201.863 104.317 202.237 104.584C202.621 104.84 203.122 104.968 203.741 104.968C203.751 104.968 203.767 104.968 203.789 104.968C203.81 104.968 203.853 104.968 203.917 104.968C203.981 104.968 204.071 104.968 204.189 104.968C204.306 104.957 204.471 104.947 204.685 104.936V102.088ZM53.968 123.424C54.32 122.912 54.7093 122.555 55.136 122.352C55.5627 122.139 56.096 122.032 56.736 122.032C57.7173 122.032 58.4693 122.352 58.992 122.992C59.5253 123.632 59.792 124.576 59.792 125.824C59.792 127.264 59.4827 128.352 58.864 129.088C58.256 129.824 57.4027 130.192 56.304 130.192C55.1307 130.192 54.2507 129.787 53.664 128.976C53.0773 128.165 52.784 126.891 52.784 125.152C52.784 124.235 52.8267 123.451 52.912 122.8C53.008 122.149 53.1413 121.6 53.312 121.152C53.4933 120.704 53.7067 120.347 53.952 120.08C54.208 119.813 54.4907 119.605 54.8 119.456C55.12 119.296 55.4667 119.184 55.84 119.12C56.2133 119.056 56.6133 119.003 57.04 118.96C57.5947 118.907 58.0267 118.848 58.336 118.784C58.656 118.709 58.912 118.581 59.104 118.4L59.248 119.552C59.1413 119.648 59.024 119.728 58.896 119.792C58.768 119.856 58.6133 119.909 58.432 119.952C58.2507 119.995 58.032 120.032 57.776 120.064C57.5307 120.096 57.2427 120.123 56.912 120.144C56.4533 120.176 56.048 120.235 55.696 120.32C55.3547 120.395 55.056 120.549 54.8 120.784C54.5547 121.008 54.3573 121.333 54.208 121.76C54.0693 122.176 53.9733 122.731 53.92 123.424H53.968ZM54.112 126.016C54.112 126.421 54.1547 126.811 54.24 127.184C54.3253 127.557 54.4533 127.888 54.624 128.176C54.8053 128.453 55.0347 128.672 55.312 128.832C55.5893 128.992 55.9147 129.072 56.288 129.072C57.024 129.072 57.568 128.811 57.92 128.288C58.2827 127.755 58.464 126.971 58.464 125.936C58.464 125.531 58.4267 125.157 58.352 124.816C58.2773 124.475 58.16 124.181 58 123.936C57.84 123.68 57.6373 123.488 57.392 123.36C57.1467 123.221 56.8533 123.152 56.512 123.152C55.68 123.141 55.072 123.387 54.688 123.888C54.304 124.379 54.112 125.088 54.112 126.016ZM67.6501 129.36C67.3301 129.616 66.9248 129.819 66.4341 129.968C65.9541 130.117 65.4421 130.192 64.8981 130.192C64.2901 130.192 63.7621 130.096 63.3141 129.904C62.8661 129.701 62.4981 129.419 62.2101 129.056C61.9221 128.683 61.7088 128.24 61.5701 127.728C61.4315 127.216 61.3621 126.64 61.3621 126C61.3621 124.635 61.6661 123.595 62.2741 122.88C62.8821 122.165 63.7515 121.808 64.8821 121.808C65.2448 121.808 65.6075 121.851 65.9701 121.936C66.3328 122.011 66.6581 122.16 66.9461 122.384C67.2341 122.608 67.4688 122.928 67.6501 123.344C67.8315 123.749 67.9221 124.288 67.9221 124.96C67.9221 125.312 67.8901 125.701 67.8261 126.128H62.6901C62.6901 126.597 62.7381 127.013 62.8341 127.376C62.9301 127.739 63.0795 128.048 63.2821 128.304C63.4848 128.549 63.7461 128.741 64.0661 128.88C64.3968 129.008 64.7968 129.072 65.2661 129.072C65.6288 129.072 65.9915 129.008 66.3541 128.88C66.7168 128.752 66.9888 128.603 67.1701 128.432L67.6501 129.36ZM64.8981 122.928C64.2688 122.928 63.7621 123.093 63.3781 123.424C63.0048 123.755 62.7808 124.32 62.7061 125.12H66.6741C66.6741 124.309 66.5195 123.744 66.2101 123.424C65.9008 123.093 65.4635 122.928 64.8981 122.928ZM75.2193 129.472C74.8993 129.707 74.5206 129.883 74.0833 130C73.6459 130.128 73.1873 130.192 72.7073 130.192C72.0886 130.192 71.5659 130.096 71.1393 129.904C70.7126 129.701 70.3606 129.419 70.0833 129.056C69.8166 128.683 69.6193 128.24 69.4913 127.728C69.3739 127.205 69.3153 126.629 69.3153 126C69.3153 124.645 69.6139 123.611 70.2113 122.896C70.8086 122.171 71.6673 121.808 72.7873 121.808C73.2993 121.808 73.7313 121.851 74.0833 121.936C74.4459 122.011 74.7713 122.123 75.0593 122.272L74.6913 123.376C74.4459 123.237 74.1739 123.131 73.8753 123.056C73.5766 122.971 73.2566 122.928 72.9153 122.928C71.4006 122.928 70.6432 123.952 70.6432 126C70.6432 126.405 70.6806 126.795 70.7553 127.168C70.8406 127.531 70.9739 127.856 71.1553 128.144C71.3473 128.421 71.5926 128.645 71.8913 128.816C72.2006 128.987 72.5793 129.072 73.0273 129.072C73.4113 129.072 73.7526 129.013 74.0513 128.896C74.3606 128.779 74.6113 128.645 74.8033 128.496L75.2193 129.472ZM81.798 123.12H78.262V130H76.982V122H83.078V130H81.798V123.12ZM89.8485 123.12H87.5285C87.4965 123.568 87.4645 124.053 87.4325 124.576C87.4005 125.088 87.3525 125.605 87.2885 126.128C87.2245 126.64 87.1392 127.136 87.0325 127.616C86.9258 128.085 86.7872 128.501 86.6165 128.864C86.4565 129.227 86.2538 129.52 86.0085 129.744C85.7738 129.957 85.4912 130.064 85.1605 130.064C84.9578 130.064 84.7818 130.053 84.6325 130.032C84.4832 130.011 84.3498 129.973 84.2325 129.92L84.4245 128.848C84.5525 128.891 84.6912 128.912 84.8405 128.912C85.0538 128.912 85.2458 128.821 85.4165 128.64C85.5872 128.459 85.7365 128.117 85.8645 127.616C85.9925 127.104 86.0992 126.4 86.1845 125.504C86.2698 124.608 86.3285 123.44 86.3605 122H91.1285V130H89.8485V123.12ZM93.4634 122.592C93.8687 122.347 94.338 122.165 94.8714 122.048C95.4154 121.931 95.9807 121.872 96.5674 121.872C97.122 121.872 97.5647 121.947 97.8954 122.096C98.2367 122.245 98.4927 122.443 98.6634 122.688C98.8447 122.923 98.962 123.184 99.0154 123.472C99.0794 123.76 99.1114 124.048 99.1114 124.336C99.1114 124.976 99.0954 125.6 99.0634 126.208C99.0314 126.816 99.0154 127.392 99.0154 127.936C99.0154 128.331 99.0314 128.704 99.0634 129.056C99.0954 129.408 99.154 129.733 99.2394 130.032H98.2954L97.9594 128.912H97.8794C97.7834 129.061 97.6607 129.211 97.5114 129.36C97.3727 129.499 97.202 129.627 96.9994 129.744C96.7967 129.851 96.562 129.941 96.2954 130.016C96.0287 130.091 95.7247 130.128 95.3834 130.128C95.042 130.128 94.722 130.075 94.4234 129.968C94.1354 129.861 93.8847 129.712 93.6714 129.52C93.458 129.317 93.2874 129.077 93.1594 128.8C93.042 128.523 92.9834 128.208 92.9834 127.856C92.9834 127.387 93.0794 126.997 93.2714 126.688C93.4634 126.368 93.73 126.117 94.0714 125.936C94.4234 125.744 94.8394 125.611 95.3194 125.536C95.81 125.451 96.3487 125.408 96.9354 125.408C97.0847 125.408 97.2287 125.408 97.3674 125.408C97.5167 125.408 97.666 125.419 97.8154 125.44C97.8474 125.12 97.8634 124.832 97.8634 124.576C97.8634 123.989 97.746 123.579 97.5114 123.344C97.2767 123.109 96.85 122.992 96.2314 122.992C96.05 122.992 95.8527 123.008 95.6394 123.04C95.4367 123.061 95.2234 123.099 94.9994 123.152C94.786 123.195 94.578 123.253 94.3754 123.328C94.1834 123.392 94.0127 123.467 93.8634 123.552L93.4634 122.592ZM95.7354 129.008C96.034 129.008 96.3007 128.971 96.5354 128.896C96.77 128.811 96.9727 128.709 97.1434 128.592C97.314 128.464 97.4527 128.325 97.5594 128.176C97.6767 128.027 97.762 127.883 97.8154 127.744V126.416C97.666 126.405 97.5114 126.4 97.3514 126.4C97.202 126.389 97.0527 126.384 96.9034 126.384C96.5727 126.384 96.2474 126.405 95.9274 126.448C95.618 126.48 95.3407 126.549 95.0954 126.656C94.8607 126.752 94.6687 126.891 94.5194 127.072C94.3807 127.243 94.3114 127.461 94.3114 127.728C94.3114 128.101 94.4447 128.411 94.7114 128.656C94.978 128.891 95.3194 129.008 95.7354 129.008ZM106.633 123.12H104.121V130H102.841V123.12H100.329V122H106.633V123.12ZM112.8 126.464H109.184V130H107.904V122H109.184V125.344H112.8V122H114.08V130H112.8V126.464ZM116.097 126C116.097 124.645 116.395 123.611 116.993 122.896C117.601 122.171 118.47 121.808 119.601 121.808C120.198 121.808 120.715 121.909 121.153 122.112C121.601 122.304 121.969 122.587 122.257 122.96C122.545 123.323 122.758 123.765 122.897 124.288C123.035 124.8 123.105 125.371 123.105 126C123.105 127.355 122.801 128.395 122.193 129.12C121.595 129.835 120.731 130.192 119.601 130.192C119.003 130.192 118.481 130.096 118.033 129.904C117.595 129.701 117.233 129.419 116.945 129.056C116.657 128.683 116.443 128.24 116.305 127.728C116.166 127.205 116.097 126.629 116.097 126ZM117.424 126C117.424 126.405 117.462 126.795 117.537 127.168C117.622 127.541 117.75 127.867 117.921 128.144C118.091 128.421 118.315 128.645 118.593 128.816C118.87 128.987 119.206 129.072 119.601 129.072C121.051 129.083 121.777 128.059 121.777 126C121.777 125.584 121.734 125.189 121.649 124.816C121.574 124.443 121.451 124.117 121.281 123.84C121.11 123.563 120.886 123.344 120.609 123.184C120.331 123.013 119.995 122.928 119.601 122.928C118.15 122.917 117.424 123.941 117.424 126ZM124.487 129.264C124.487 128.976 124.567 128.752 124.727 128.592C124.898 128.421 125.122 128.336 125.399 128.336C125.687 128.336 125.916 128.421 126.087 128.592C126.258 128.752 126.343 128.976 126.343 129.264C126.343 129.541 126.258 129.765 126.087 129.936C125.916 130.107 125.687 130.192 125.399 130.192C125.122 130.192 124.898 130.107 124.727 129.936C124.567 129.765 124.487 129.541 124.487 129.264Z" fill="white"></path>
    <path d="M157.5 6L167 15H148L157.5 6Z" fill="#333333"></path>
    <defs>
      <filter id="filter0_d_33716_645" x="0" y="0" width="316" height="203" filterUnits="userSpaceOnUse" color-interpolation-filters="sRGB">
        <feFlood flood-opacity="0" result="BackgroundImageFix"></feFlood>
        <feColorMatrix in="SourceAlpha" type="matrix" values="0 0 0 0 0 0 0 0 0 0 0 0 0 0 0 0 0 0 127 0" result="hardAlpha"></feColorMatrix>
        <feOffset dy="15"></feOffset>
        <feGaussianBlur stdDeviation="15"></feGaussianBlur>
        <feColorMatrix type="matrix" values="0 0 0 0 0 0 0 0 0 0 0 0 0 0 0 0 0 0 0.3 0"></feColorMatrix>
        <feBlend mode="normal" in2="BackgroundImageFix" result="effect1_dropShadow_33716_645"></feBlend>
        <feBlend mode="normal" in="SourceGraphic" in2="effect1_dropShadow_33716_645" result="shape"></feBlend>
      </filter>
    </defs>
  </symbol>
</svg>